M48
; DRILL file {KiCad 8.0.8} date 2025-04-08T21:15:21+0200
; FORMAT={-:-/ absolute / inch / decimal}
; #@! TF.CreationDate,2025-04-08T21:15:21+02:00
; #@! TF.GenerationSoftware,Kicad,Pcbnew,8.0.8
; #@! TF.FileFunction,NonPlated,1,2,NPTH
FMAT,2
INCH
; #@! TA.AperFunction,NonPlated,NPTH,ComponentDrill
T1C0.0866
; #@! TA.AperFunction,NonPlated,NPTH,ComponentDrill
T2C0.1181
; #@! TA.AperFunction,NonPlated,NPTH,ComponentDrill
T3C0.2008
%
G90
G05
T1
X2.25Y-4.3125
X9.1673Y-1.5443
X11.8125Y-4.3125
X17.625Y-4.3125
T2
X1.3268Y-1.685
X1.3268Y-2.81
X1.4205Y-5.06
X1.4205Y-5.81
X1.5143Y-3.56
X1.6024Y-1.7264
X1.6024Y-2.8514
X1.608Y-4.31
X1.6961Y-5.1014
X1.6961Y-5.8514
X1.7899Y-3.6014
X1.8836Y-4.3514
X2.0768Y-2.81
X2.2643Y-5.06
X2.3524Y-2.8514
X2.358Y-5.81
X2.4518Y-3.56
X2.5399Y-5.1014
X2.6336Y-5.8514
X2.6393Y-4.31
X2.7274Y-3.6014
X2.8268Y-1.685
X2.8268Y-2.81
X2.9149Y-4.3514
X3.0143Y-5.06
X3.1024Y-1.7264
X3.1024Y-2.8514
X3.2018Y-3.56
X3.2899Y-5.1014
X3.2955Y-5.81
X3.3893Y-4.31
X3.4774Y-3.6014
X3.5711Y-5.8514
X3.5768Y-1.685
X3.5768Y-2.81
X3.6649Y-4.3514
X3.7643Y-5.06
X3.8524Y-1.7264
X3.8524Y-2.8514
X3.9518Y-3.56
X4.0399Y-5.1014
X4.1393Y-4.31
X4.2274Y-3.6014
X4.3268Y-1.685
X4.3268Y-2.81
X4.4149Y-4.3514
X4.5143Y-5.06
X4.6024Y-1.7264
X4.6024Y-2.8514
X4.7018Y-3.56
X4.7899Y-5.1014
X4.8893Y-4.31
X4.9774Y-3.6014
X5.0768Y-1.685
X5.0768Y-2.81
X5.1649Y-4.3514
X5.2643Y-5.06
X5.3524Y-1.7264
X5.3524Y-2.8514
X5.4518Y-3.56
X5.5399Y-5.1014
X5.6393Y-4.31
X5.7274Y-3.6014
X5.8268Y-2.81
X5.9149Y-4.3514
X6.0143Y-5.06
X6.1024Y-2.8514
X6.108Y-5.81
X6.2018Y-1.685
X6.2018Y-3.56
X6.2899Y-5.1014
X6.3836Y-5.8514
X6.3893Y-4.31
X6.4774Y-1.7264
X6.4774Y-3.6014
X6.5768Y-2.81
X6.6649Y-4.3514
X6.7643Y-5.06
X6.8524Y-2.8514
X6.9518Y-1.685
X6.9518Y-3.56
X7.0399Y-5.1014
X7.1393Y-4.31
X7.2274Y-1.7264
X7.2274Y-3.6014
X7.3268Y-2.81
X7.4149Y-4.3514
X7.5143Y-5.06
X7.6024Y-2.8514
X7.7018Y-1.685
X7.7018Y-3.56
X7.7899Y-5.1014
X7.8893Y-4.31
X7.9774Y-1.7264
X7.9774Y-3.6014
X8.0768Y-2.81
X8.1649Y-4.3514
X8.2643Y-5.06
X8.3524Y-2.8514
X8.4518Y-1.685
X8.4518Y-3.56
X8.5399Y-5.1014
X8.6393Y-4.31
X8.7274Y-1.7264
X8.7274Y-3.6014
X8.8268Y-2.81
X8.9149Y-4.3514
X8.9205Y-5.81
X9.0143Y-5.06
X9.1024Y-2.8514
X9.1961Y-5.8514
X9.2018Y-3.56
X9.2899Y-5.1014
X9.3893Y-4.31
X9.4774Y-3.6014
X9.5768Y-1.685
X9.5768Y-2.81
X9.6649Y-4.3514
X9.7643Y-5.06
X9.8524Y-1.7264
X9.8524Y-2.8514
X9.858Y-5.81
X9.9518Y-3.56
X10.0399Y-5.1014
X10.1336Y-5.8514
X10.1393Y-4.31
X10.2274Y-3.6014
X10.3268Y-1.685
X10.3268Y-2.81
X10.4149Y-4.3514
X10.6024Y-1.7264
X10.6024Y-2.8514
X10.7018Y-3.56
X10.7955Y-5.81
X10.8893Y-4.31
X10.9774Y-3.6014
X11.0711Y-5.8514
X11.0768Y-1.685
X11.1649Y-4.3514
X11.1705Y-5.06
X11.3524Y-1.7264
X11.4461Y-5.1014
X11.4518Y-2.81
X11.7274Y-2.8514
X11.733Y-3.935
X11.733Y-5.81
X11.8268Y-1.685
X12.0086Y-3.9764
X12.0086Y-5.8514
X12.1024Y-1.7264
X12.7643Y-1.685
X12.7643Y-2.81
X12.7643Y-3.56
X12.7643Y-5.81
X13.0399Y-1.7264
X13.0399Y-2.8514
X13.0399Y-3.6014
X13.0399Y-5.8514
X13.5143Y-1.685
X13.5143Y-2.81
X13.5143Y-3.56
X13.5143Y-5.06
X13.5143Y-5.81
X13.7899Y-1.7264
X13.7899Y-2.8514
X13.7899Y-3.6014
X13.7899Y-5.1014
X13.7899Y-5.8514
X14.2643Y-1.685
X14.2643Y-2.81
X14.2643Y-3.56
X14.2643Y-5.81
X14.5399Y-1.7264
X14.5399Y-2.8514
X14.5399Y-3.6014
X14.5399Y-5.8514
X15.2018Y-2.81
X15.2018Y-3.56
X15.2018Y-4.31
X15.2018Y-5.06
X15.4774Y-2.8514
X15.4774Y-3.6014
X15.4774Y-4.3514
X15.4774Y-5.1014
X15.5768Y-5.81
X15.8524Y-5.8514
X15.9518Y-2.81
X15.9518Y-3.56
X15.9518Y-4.31
X15.9518Y-5.06
X16.2274Y-2.8514
X16.2274Y-3.6014
X16.2274Y-4.3514
X16.2274Y-5.1014
X16.7018Y-2.81
X16.7018Y-3.56
X16.7018Y-4.31
X16.7018Y-5.06
X16.7018Y-5.81
X16.9774Y-2.8514
X16.9774Y-3.6014
X16.9774Y-4.3514
X16.9774Y-5.1014
X16.9774Y-5.8514
X17.4518Y-2.81
X17.4518Y-3.935
X17.4518Y-5.435
X17.7274Y-2.8514
X17.7274Y-3.9764
X17.7274Y-5.4764
T3
X1.5Y-1.5
X1.5Y-2.625
X1.5938Y-4.875
X1.5938Y-5.625
X1.6875Y-3.375
X1.7812Y-4.125
X2.25Y-2.625
X2.4375Y-4.875
X2.5312Y-5.625
X2.625Y-3.375
X2.8125Y-4.125
X3.0Y-1.5
X3.0Y-2.625
X3.1875Y-4.875
X3.375Y-3.375
X3.4688Y-5.625
X3.5625Y-4.125
X3.75Y-1.5
X3.75Y-2.625
X3.9375Y-4.875
X4.125Y-3.375
X4.3125Y-4.125
X4.5Y-1.5
X4.5Y-2.625
X4.6875Y-4.875
X4.875Y-3.375
X5.0625Y-4.125
X5.25Y-1.5
X5.25Y-2.625
X5.4375Y-4.875
X5.625Y-3.375
X5.8125Y-4.125
X6.0Y-2.625
X6.1875Y-4.875
X6.2812Y-5.625
X6.375Y-1.5
X6.375Y-3.375
X6.5625Y-4.125
X6.75Y-2.625
X6.9375Y-4.875
X7.125Y-1.5
X7.125Y-3.375
X7.3125Y-4.125
X7.5Y-2.625
X7.6875Y-4.875
X7.875Y-1.5
X7.875Y-3.375
X8.0625Y-4.125
X8.25Y-2.625
X8.4375Y-4.875
X8.625Y-1.5
X8.625Y-3.375
X8.8125Y-4.125
X9.0Y-2.625
X9.0938Y-5.625
X9.1875Y-4.875
X9.375Y-3.375
X9.5625Y-4.125
X9.75Y-1.5
X9.75Y-2.625
X9.9375Y-4.875
X10.0312Y-5.625
X10.125Y-3.375
X10.3125Y-4.125
X10.5Y-1.5
X10.5Y-2.625
X10.875Y-3.375
X10.9688Y-5.625
X11.0625Y-4.125
X11.25Y-1.5
X11.3438Y-4.875
X11.625Y-2.625
X11.9062Y-3.75
X11.9062Y-5.625
X12.0Y-1.5
X12.9375Y-1.5
X12.9375Y-2.625
X12.9375Y-3.375
X12.9375Y-5.625
X13.6875Y-1.5
X13.6875Y-2.625
X13.6875Y-3.375
X13.6875Y-4.875
X13.6875Y-5.625
X14.4375Y-1.5
X14.4375Y-2.625
X14.4375Y-3.375
X14.4375Y-5.625
X15.375Y-2.625
X15.375Y-3.375
X15.375Y-4.125
X15.375Y-4.875
X15.75Y-5.625
X16.125Y-2.625
X16.125Y-3.375
X16.125Y-4.125
X16.125Y-4.875
X16.875Y-2.625
X16.875Y-3.375
X16.875Y-4.125
X16.875Y-4.875
X16.875Y-5.625
X17.625Y-2.625
X17.625Y-3.75
X17.625Y-5.25
M30
