%TF.GenerationSoftware,KiCad,Pcbnew,8.0.8*%
%TF.CreationDate,2025-04-08T21:15:21+02:00*%
%TF.ProjectId,TP-Board-iso105,54502d42-6f61-4726-942d-69736f313035,rev?*%
%TF.SameCoordinates,Original*%
%TF.FileFunction,Soldermask,Top*%
%TF.FilePolarity,Negative*%
%FSLAX46Y46*%
G04 Gerber Fmt 4.6, Leading zero omitted, Abs format (unit mm)*
G04 Created by KiCad (PCBNEW 8.0.8) date 2025-04-08 21:15:21*
%MOMM*%
%LPD*%
G01*
G04 APERTURE LIST*
G04 Aperture macros list*
%AMRoundRect*
0 Rectangle with rounded corners*
0 $1 Rounding radius*
0 $2 $3 $4 $5 $6 $7 $8 $9 X,Y pos of 4 corners*
0 Add a 4 corners polygon primitive as box body*
4,1,4,$2,$3,$4,$5,$6,$7,$8,$9,$2,$3,0*
0 Add four circle primitives for the rounded corners*
1,1,$1+$1,$2,$3*
1,1,$1+$1,$4,$5*
1,1,$1+$1,$6,$7*
1,1,$1+$1,$8,$9*
0 Add four rect primitives between the rounded corners*
20,1,$1+$1,$2,$3,$4,$5,0*
20,1,$1+$1,$4,$5,$6,$7,0*
20,1,$1+$1,$6,$7,$8,$9,0*
20,1,$1+$1,$8,$9,$2,$3,0*%
G04 Aperture macros list end*
%ADD10RoundRect,0.218750X-0.218750X-0.256250X0.218750X-0.256250X0.218750X0.256250X-0.218750X0.256250X0*%
%ADD11C,3.000000*%
%ADD12C,5.100000*%
%ADD13RoundRect,0.100000X0.100000X-0.217500X0.100000X0.217500X-0.100000X0.217500X-0.100000X-0.217500X0*%
%ADD14C,2.200000*%
%ADD15O,1.700000X1.700000*%
%ADD16R,1.700000X1.700000*%
G04 APERTURE END LIST*
D10*
%TO.C,LED87*%
X286412500Y-118650000D03*
X287987500Y-118650000D03*
%TD*%
D11*
%TO.C,SW26*%
X205150000Y-71375000D03*
D12*
X209550000Y-66675000D03*
D11*
X212150000Y-72425000D03*
%TD*%
D13*
%TO.C,R66*%
X186750000Y-100007500D03*
X186750000Y-99192500D03*
%TD*%
D10*
%TO.C,LED93*%
X38812500Y-137700000D03*
X40387500Y-137700000D03*
%TD*%
D13*
%TO.C,R48*%
X239162500Y-80957500D03*
X239162500Y-80142500D03*
%TD*%
D10*
%TO.C,LED19*%
X74275000Y-61500000D03*
X75850000Y-61500000D03*
%TD*%
D13*
%TO.C,R56*%
X429650000Y-80957500D03*
X429650000Y-80142500D03*
%TD*%
%TO.C,R58*%
X448650000Y-90507500D03*
X448650000Y-89692500D03*
%TD*%
D10*
%TO.C,LED10*%
X245712500Y-32900000D03*
X247287500Y-32900000D03*
%TD*%
D13*
%TO.C,R54*%
X391600000Y-80957500D03*
X391600000Y-80142500D03*
%TD*%
%TO.C,R97*%
X232162500Y-138107500D03*
X232162500Y-137292500D03*
%TD*%
%TO.C,R89*%
X391662500Y-119057500D03*
X391662500Y-118242500D03*
%TD*%
D11*
%TO.C,SW71*%
X276587500Y-109475000D03*
D12*
X280987500Y-104775000D03*
D11*
X283587500Y-110525000D03*
%TD*%
D13*
%TO.C,R91*%
X429762500Y-119057500D03*
X429762500Y-118242500D03*
%TD*%
D10*
%TO.C,LED103*%
X365012500Y-137700000D03*
X366587500Y-137700000D03*
%TD*%
D11*
%TO.C,SW67*%
X200387500Y-109475000D03*
D12*
X204787500Y-104775000D03*
D11*
X207387500Y-110525000D03*
%TD*%
D13*
%TO.C,R7*%
X181962500Y-33307500D03*
X181962500Y-32492500D03*
%TD*%
%TO.C,R82*%
X177400000Y-119057500D03*
X177400000Y-118242500D03*
%TD*%
D10*
%TO.C,LED24*%
X169525000Y-61500000D03*
X171100000Y-61500000D03*
%TD*%
%TO.C,LED32*%
X345912500Y-61500000D03*
X347487500Y-61500000D03*
%TD*%
D11*
%TO.C,SW42*%
X119425000Y-90425000D03*
D12*
X123825000Y-85725000D03*
D11*
X126425000Y-91475000D03*
%TD*%
D10*
%TO.C,LED66*%
X183862500Y-99600000D03*
X185437500Y-99600000D03*
%TD*%
D11*
%TO.C,SW66*%
X181337500Y-109475000D03*
D12*
X185737500Y-104775000D03*
D11*
X188337500Y-110525000D03*
%TD*%
D13*
%TO.C,R68*%
X224850000Y-100007500D03*
X224850000Y-99192500D03*
%TD*%
%TO.C,R50*%
X277387500Y-80957500D03*
X277387500Y-80142500D03*
%TD*%
D11*
%TO.C,SW21*%
X109900000Y-71375000D03*
D12*
X114300000Y-66675000D03*
D11*
X116900000Y-72425000D03*
%TD*%
D10*
%TO.C,LED59*%
X43312500Y-99600000D03*
X44887500Y-99600000D03*
%TD*%
D13*
%TO.C,R38*%
X43850000Y-81007500D03*
X43850000Y-80192500D03*
%TD*%
%TO.C,R39*%
X67712500Y-80957500D03*
X67712500Y-80142500D03*
%TD*%
%TO.C,R1*%
X39275000Y-33307500D03*
X39275000Y-32492500D03*
%TD*%
D11*
%TO.C,SW16*%
X362312500Y-42800000D03*
D12*
X366712500Y-38100000D03*
D11*
X369312500Y-43850000D03*
%TD*%
D13*
%TO.C,R10*%
X248600000Y-33307500D03*
X248600000Y-32492500D03*
%TD*%
D10*
%TO.C,LED56*%
X426762500Y-80550000D03*
X428337500Y-80550000D03*
%TD*%
D13*
%TO.C,R64*%
X148650000Y-100007500D03*
X148650000Y-99192500D03*
%TD*%
D10*
%TO.C,LED82*%
X174512500Y-118650000D03*
X176087500Y-118650000D03*
%TD*%
D11*
%TO.C,SW76*%
X57512500Y-128525000D03*
D12*
X61912500Y-123825000D03*
D11*
X64512500Y-129575000D03*
%TD*%
D10*
%TO.C,LED45*%
X179125000Y-80550000D03*
X180700000Y-80550000D03*
%TD*%
%TO.C,LED8*%
X198112500Y-32900000D03*
X199687500Y-32900000D03*
%TD*%
D13*
%TO.C,R19*%
X77162500Y-61907500D03*
X77162500Y-61092500D03*
%TD*%
D11*
%TO.C,SW58*%
X443275000Y-99950000D03*
D12*
X447675000Y-95250000D03*
D11*
X450275000Y-101000000D03*
%TD*%
D13*
%TO.C,R70*%
X262950000Y-100007500D03*
X262950000Y-99192500D03*
%TD*%
D11*
%TO.C,SW88*%
X343262500Y-128525000D03*
D12*
X347662500Y-123825000D03*
D11*
X350262500Y-129575000D03*
%TD*%
D10*
%TO.C,LED76*%
X60162500Y-118650000D03*
X61737500Y-118650000D03*
%TD*%
D13*
%TO.C,R100*%
X303600000Y-138107500D03*
X303600000Y-137292500D03*
%TD*%
D11*
%TO.C,SW50*%
X271825000Y-90425000D03*
D12*
X276225000Y-85725000D03*
D11*
X278825000Y-91475000D03*
%TD*%
%TO.C,SW87*%
X283731250Y-128525000D03*
D12*
X288131250Y-123825000D03*
D11*
X290731250Y-129575000D03*
%TD*%
D13*
%TO.C,R76*%
X63050000Y-119057500D03*
X63050000Y-118242500D03*
%TD*%
%TO.C,R29*%
X267662500Y-61907500D03*
X267662500Y-61092500D03*
%TD*%
D11*
%TO.C,SW57*%
X424225000Y-90425000D03*
D12*
X428625000Y-85725000D03*
D11*
X431225000Y-91475000D03*
%TD*%
D10*
%TO.C,LED72*%
X388662500Y-99600000D03*
X390237500Y-99600000D03*
%TD*%
%TO.C,LED41*%
X102925000Y-80550000D03*
X104500000Y-80550000D03*
%TD*%
D11*
%TO.C,SW34*%
X386125000Y-71375000D03*
D12*
X390525000Y-66675000D03*
D11*
X393125000Y-72425000D03*
%TD*%
D10*
%TO.C,LED73*%
X407712500Y-99600000D03*
X409287500Y-99600000D03*
%TD*%
D11*
%TO.C,SW14*%
X324212500Y-42800000D03*
D12*
X328612500Y-38100000D03*
D11*
X331212500Y-43850000D03*
%TD*%
D10*
%TO.C,LED102*%
X345962500Y-137700000D03*
X347537500Y-137700000D03*
%TD*%
D13*
%TO.C,R27*%
X229562500Y-61907500D03*
X229562500Y-61092500D03*
%TD*%
D10*
%TO.C,LED53*%
X364862500Y-80550000D03*
X366437500Y-80550000D03*
%TD*%
D13*
%TO.C,R40*%
X86762500Y-80957500D03*
X86762500Y-80142500D03*
%TD*%
%TO.C,R81*%
X158350000Y-119057500D03*
X158350000Y-118242500D03*
%TD*%
%TO.C,R96*%
X160800000Y-138107500D03*
X160800000Y-137292500D03*
%TD*%
D10*
%TO.C,LED70*%
X260062500Y-99600000D03*
X261637500Y-99600000D03*
%TD*%
%TO.C,LED36*%
X426775000Y-61500000D03*
X428350000Y-61500000D03*
%TD*%
D13*
%TO.C,R80*%
X139300000Y-119057500D03*
X139300000Y-118242500D03*
%TD*%
D11*
%TO.C,SW22*%
X128950000Y-71375000D03*
D12*
X133350000Y-66675000D03*
D11*
X135950000Y-72425000D03*
%TD*%
D10*
%TO.C,LED25*%
X188575000Y-61500000D03*
X190150000Y-61500000D03*
%TD*%
%TO.C,LED9*%
X217212500Y-32900000D03*
X218787500Y-32900000D03*
%TD*%
%TO.C,LED79*%
X117362500Y-118650000D03*
X118937500Y-118650000D03*
%TD*%
D13*
%TO.C,R88*%
X348800000Y-119057500D03*
X348800000Y-118242500D03*
%TD*%
D11*
%TO.C,SW11*%
X262300000Y-42800000D03*
D12*
X266700000Y-38100000D03*
D11*
X269300000Y-43850000D03*
%TD*%
D13*
%TO.C,R42*%
X124862500Y-80957500D03*
X124862500Y-80142500D03*
%TD*%
D10*
%TO.C,LED104*%
X398275000Y-137700000D03*
X399850000Y-137700000D03*
%TD*%
D11*
%TO.C,SW12*%
X281350000Y-42800000D03*
D12*
X285750000Y-38100000D03*
D11*
X288350000Y-43850000D03*
%TD*%
D13*
%TO.C,R23*%
X153362500Y-61907500D03*
X153362500Y-61092500D03*
%TD*%
%TO.C,R65*%
X167700000Y-100007500D03*
X167700000Y-99192500D03*
%TD*%
D10*
%TO.C,LED85*%
X231662500Y-118650000D03*
X233237500Y-118650000D03*
%TD*%
D13*
%TO.C,R15*%
X348612500Y-33307500D03*
X348612500Y-32492500D03*
%TD*%
D11*
%TO.C,SW94*%
X59893750Y-147575000D03*
D12*
X64293750Y-142875000D03*
D11*
X66893750Y-148625000D03*
%TD*%
D13*
%TO.C,R102*%
X348850000Y-138107500D03*
X348850000Y-137292500D03*
%TD*%
%TO.C,R47*%
X220112500Y-80957500D03*
X220112500Y-80142500D03*
%TD*%
D11*
%TO.C,SW55*%
X386125000Y-90425000D03*
D12*
X390525000Y-85725000D03*
D11*
X393125000Y-91475000D03*
%TD*%
%TO.C,SW83*%
X190862500Y-128525000D03*
D12*
X195262500Y-123825000D03*
D11*
X197862500Y-129575000D03*
%TD*%
%TO.C,SW5*%
X128950000Y-42800000D03*
D12*
X133350000Y-38100000D03*
D11*
X135950000Y-43850000D03*
%TD*%
D10*
%TO.C,LED95*%
X86412500Y-137700000D03*
X87987500Y-137700000D03*
%TD*%
D13*
%TO.C,R59*%
X46200000Y-100007500D03*
X46200000Y-99192500D03*
%TD*%
D10*
%TO.C,LED6*%
X160112500Y-32900000D03*
X161687500Y-32900000D03*
%TD*%
D11*
%TO.C,SW73*%
X405175000Y-109475000D03*
D12*
X409575000Y-104775000D03*
D11*
X412175000Y-110525000D03*
%TD*%
D10*
%TO.C,LED7*%
X179075000Y-32900000D03*
X180650000Y-32900000D03*
%TD*%
D11*
%TO.C,SW8*%
X195625000Y-42800000D03*
D12*
X200025000Y-38100000D03*
D11*
X202625000Y-43850000D03*
%TD*%
D13*
%TO.C,R98*%
X256050000Y-138107500D03*
X256050000Y-137292500D03*
%TD*%
D11*
%TO.C,SW86*%
X248012500Y-128525000D03*
D12*
X252412500Y-123825000D03*
D11*
X255012500Y-129575000D03*
%TD*%
%TO.C,SW45*%
X176575000Y-90425000D03*
D12*
X180975000Y-85725000D03*
D11*
X183575000Y-91475000D03*
%TD*%
D10*
%TO.C,LED26*%
X207625000Y-61500000D03*
X209200000Y-61500000D03*
%TD*%
D13*
%TO.C,R17*%
X39062500Y-61907500D03*
X39062500Y-61092500D03*
%TD*%
%TO.C,R24*%
X172412500Y-61907500D03*
X172412500Y-61092500D03*
%TD*%
%TO.C,R3*%
X96412500Y-33307500D03*
X96412500Y-32492500D03*
%TD*%
%TO.C,R8*%
X201000000Y-33307500D03*
X201000000Y-32492500D03*
%TD*%
%TO.C,R79*%
X120250000Y-119057500D03*
X120250000Y-118242500D03*
%TD*%
D11*
%TO.C,SW91*%
X424225000Y-128525000D03*
D12*
X428625000Y-123825000D03*
D11*
X431225000Y-129575000D03*
%TD*%
%TO.C,SW90*%
X405175000Y-128525000D03*
D12*
X409575000Y-123825000D03*
D11*
X412175000Y-129575000D03*
%TD*%
%TO.C,SW92*%
X443275000Y-138050000D03*
D12*
X447675000Y-133350000D03*
D11*
X450275000Y-139100000D03*
%TD*%
D13*
%TO.C,R101*%
X329800000Y-138107500D03*
X329800000Y-137292500D03*
%TD*%
D11*
%TO.C,SW98*%
X250393750Y-147575000D03*
D12*
X254793750Y-142875000D03*
D11*
X257393750Y-148625000D03*
%TD*%
D13*
%TO.C,R11*%
X267800000Y-33307500D03*
X267800000Y-32492500D03*
%TD*%
%TO.C,R37*%
X448800000Y-61907500D03*
X448800000Y-61092500D03*
%TD*%
D10*
%TO.C,LED37*%
X445912500Y-61500000D03*
X447487500Y-61500000D03*
%TD*%
D14*
%TO.C,H2*%
X300037500Y-109537500D03*
%TD*%
D11*
%TO.C,SW37*%
X443275000Y-71375000D03*
D12*
X447675000Y-66675000D03*
D11*
X450275000Y-72425000D03*
%TD*%
D13*
%TO.C,R31*%
X329750000Y-61907500D03*
X329750000Y-61092500D03*
%TD*%
D11*
%TO.C,SW62*%
X105137500Y-109475000D03*
D12*
X109537500Y-104775000D03*
D11*
X112137500Y-110525000D03*
%TD*%
D10*
%TO.C,LED27*%
X226675000Y-61500000D03*
X228250000Y-61500000D03*
%TD*%
D11*
%TO.C,SW7*%
X176575000Y-42800000D03*
D12*
X180975000Y-38100000D03*
D11*
X183575000Y-43850000D03*
%TD*%
D10*
%TO.C,LED88*%
X345912500Y-118650000D03*
X347487500Y-118650000D03*
%TD*%
D13*
%TO.C,R51*%
X329650000Y-80957500D03*
X329650000Y-80142500D03*
%TD*%
D10*
%TO.C,LED3*%
X93525000Y-32900000D03*
X95100000Y-32900000D03*
%TD*%
D11*
%TO.C,SW3*%
X90850000Y-42800000D03*
D12*
X95250000Y-38100000D03*
D11*
X97850000Y-43850000D03*
%TD*%
D13*
%TO.C,R71*%
X282000000Y-100007500D03*
X282000000Y-99192500D03*
%TD*%
D10*
%TO.C,LED58*%
X445762500Y-90100000D03*
X447337500Y-90100000D03*
%TD*%
D11*
%TO.C,SW65*%
X162287500Y-109475000D03*
D12*
X166687500Y-104775000D03*
D11*
X169287500Y-110525000D03*
%TD*%
%TO.C,SW46*%
X195625000Y-90425000D03*
D12*
X200025000Y-85725000D03*
D11*
X202625000Y-91475000D03*
%TD*%
%TO.C,SW49*%
X252775000Y-90425000D03*
D12*
X257175000Y-85725000D03*
D11*
X259775000Y-91475000D03*
%TD*%
%TO.C,SW33*%
X362312500Y-71375000D03*
D12*
X366712500Y-66675000D03*
D11*
X369312500Y-72425000D03*
%TD*%
D10*
%TO.C,LED17*%
X36175000Y-61500000D03*
X37750000Y-61500000D03*
%TD*%
D13*
%TO.C,R45*%
X182012500Y-80957500D03*
X182012500Y-80142500D03*
%TD*%
%TO.C,R83*%
X196450000Y-119057500D03*
X196450000Y-118242500D03*
%TD*%
D10*
%TO.C,LED21*%
X112375000Y-61500000D03*
X113950000Y-61500000D03*
%TD*%
D11*
%TO.C,SW103*%
X362312500Y-147575000D03*
D12*
X366712500Y-142875000D03*
D11*
X369312500Y-148625000D03*
%TD*%
D10*
%TO.C,LED90*%
X407825000Y-118650000D03*
X409400000Y-118650000D03*
%TD*%
%TO.C,LED38*%
X40962500Y-80600000D03*
X42537500Y-80600000D03*
%TD*%
D13*
%TO.C,R5*%
X134512500Y-33307500D03*
X134512500Y-32492500D03*
%TD*%
D10*
%TO.C,LED81*%
X155462500Y-118650000D03*
X157037500Y-118650000D03*
%TD*%
D13*
%TO.C,R87*%
X289300000Y-119057500D03*
X289300000Y-118242500D03*
%TD*%
D11*
%TO.C,SW63*%
X124187500Y-109475000D03*
D12*
X128587500Y-104775000D03*
D11*
X131187500Y-110525000D03*
%TD*%
D13*
%TO.C,R86*%
X253500000Y-119057500D03*
X253500000Y-118242500D03*
%TD*%
D11*
%TO.C,SW43*%
X138475000Y-90425000D03*
D12*
X142875000Y-85725000D03*
D11*
X145475000Y-91475000D03*
%TD*%
D13*
%TO.C,R20*%
X96212500Y-61907500D03*
X96212500Y-61092500D03*
%TD*%
%TO.C,R69*%
X243900000Y-100007500D03*
X243900000Y-99192500D03*
%TD*%
%TO.C,R55*%
X410550000Y-80957500D03*
X410550000Y-80142500D03*
%TD*%
%TO.C,R32*%
X348800000Y-61907500D03*
X348800000Y-61092500D03*
%TD*%
D10*
%TO.C,LED31*%
X326862500Y-61500000D03*
X328437500Y-61500000D03*
%TD*%
%TO.C,LED67*%
X202912500Y-99600000D03*
X204487500Y-99600000D03*
%TD*%
D11*
%TO.C,SW53*%
X343262500Y-90425000D03*
D12*
X347662500Y-85725000D03*
D11*
X350262500Y-91475000D03*
%TD*%
D13*
%TO.C,R94*%
X65450000Y-138107500D03*
X65450000Y-137292500D03*
%TD*%
D11*
%TO.C,SW61*%
X86087500Y-109475000D03*
D12*
X90487500Y-104775000D03*
D11*
X93087500Y-110525000D03*
%TD*%
D13*
%TO.C,R25*%
X191462500Y-61907500D03*
X191462500Y-61092500D03*
%TD*%
%TO.C,R85*%
X234550000Y-119057500D03*
X234550000Y-118242500D03*
%TD*%
D10*
%TO.C,LED33*%
X364962500Y-61500000D03*
X366537500Y-61500000D03*
%TD*%
D13*
%TO.C,R22*%
X134312500Y-61907500D03*
X134312500Y-61092500D03*
%TD*%
D10*
%TO.C,LED47*%
X217225000Y-80550000D03*
X218800000Y-80550000D03*
%TD*%
%TO.C,LED30*%
X293475000Y-61500000D03*
X295050000Y-61500000D03*
%TD*%
D11*
%TO.C,SW36*%
X424225000Y-71375000D03*
D12*
X428625000Y-66675000D03*
D11*
X431225000Y-72425000D03*
%TD*%
%TO.C,SW35*%
X405175000Y-71375000D03*
D12*
X409575000Y-66675000D03*
D11*
X412175000Y-72425000D03*
%TD*%
%TO.C,SW25*%
X186100000Y-71375000D03*
D12*
X190500000Y-66675000D03*
D11*
X193100000Y-72425000D03*
%TD*%
D13*
%TO.C,R36*%
X429662500Y-61907500D03*
X429662500Y-61092500D03*
%TD*%
D10*
%TO.C,LED91*%
X426875000Y-118650000D03*
X428450000Y-118650000D03*
%TD*%
D11*
%TO.C,SW97*%
X226581250Y-147575000D03*
D12*
X230981250Y-142875000D03*
D11*
X233581250Y-148625000D03*
%TD*%
D10*
%TO.C,LED99*%
X277012500Y-137700000D03*
X278587500Y-137700000D03*
%TD*%
%TO.C,LED68*%
X221962500Y-99600000D03*
X223537500Y-99600000D03*
%TD*%
D13*
%TO.C,R2*%
X77275000Y-33307500D03*
X77275000Y-32492500D03*
%TD*%
%TO.C,R13*%
X305800000Y-33307500D03*
X305800000Y-32492500D03*
%TD*%
D11*
%TO.C,SW93*%
X36081250Y-147575000D03*
D12*
X40481250Y-142875000D03*
D11*
X43081250Y-148625000D03*
%TD*%
D13*
%TO.C,R90*%
X410712500Y-119057500D03*
X410712500Y-118242500D03*
%TD*%
D10*
%TO.C,LED83*%
X193562500Y-118650000D03*
X195137500Y-118650000D03*
%TD*%
%TO.C,LED18*%
X55225000Y-61500000D03*
X56800000Y-61500000D03*
%TD*%
%TO.C,LED44*%
X160075000Y-80550000D03*
X161650000Y-80550000D03*
%TD*%
D11*
%TO.C,SW39*%
X62275000Y-90425000D03*
D12*
X66675000Y-85725000D03*
D11*
X69275000Y-91475000D03*
%TD*%
%TO.C,SW31*%
X324212500Y-71375000D03*
D12*
X328612500Y-66675000D03*
D11*
X331212500Y-72425000D03*
%TD*%
D10*
%TO.C,LED75*%
X38662500Y-118650000D03*
X40237500Y-118650000D03*
%TD*%
D11*
%TO.C,SW47*%
X214675000Y-90425000D03*
D12*
X219075000Y-85725000D03*
D11*
X221675000Y-91475000D03*
%TD*%
%TO.C,SW60*%
X67037500Y-109475000D03*
D12*
X71437500Y-104775000D03*
D11*
X74037500Y-110525000D03*
%TD*%
D10*
%TO.C,LED20*%
X93325000Y-61500000D03*
X94900000Y-61500000D03*
%TD*%
D11*
%TO.C,SW29*%
X262300000Y-71375000D03*
D12*
X266700000Y-66675000D03*
D11*
X269300000Y-72425000D03*
%TD*%
%TO.C,SW6*%
X157525000Y-42800000D03*
D12*
X161925000Y-38100000D03*
D11*
X164525000Y-43850000D03*
%TD*%
%TO.C,SW13*%
X300400000Y-42800000D03*
D12*
X304800000Y-38100000D03*
D11*
X307400000Y-43850000D03*
%TD*%
D10*
%TO.C,LED16*%
X364775000Y-32900000D03*
X366350000Y-32900000D03*
%TD*%
D13*
%TO.C,R95*%
X89300000Y-138107500D03*
X89300000Y-137292500D03*
%TD*%
D11*
%TO.C,SW17*%
X33700000Y-71375000D03*
D12*
X38100000Y-66675000D03*
D11*
X40700000Y-72425000D03*
%TD*%
D13*
%TO.C,R9*%
X220100000Y-33307500D03*
X220100000Y-32492500D03*
%TD*%
D10*
%TO.C,LED86*%
X250612500Y-118650000D03*
X252187500Y-118650000D03*
%TD*%
%TO.C,LED1*%
X36387500Y-32900000D03*
X37962500Y-32900000D03*
%TD*%
D11*
%TO.C,SW105*%
X424225000Y-147575000D03*
D12*
X428625000Y-142875000D03*
D11*
X431225000Y-148625000D03*
%TD*%
D10*
%TO.C,LED64*%
X145762500Y-99600000D03*
X147337500Y-99600000D03*
%TD*%
D13*
%TO.C,R84*%
X215500000Y-119057500D03*
X215500000Y-118242500D03*
%TD*%
D11*
%TO.C,SW18*%
X52750000Y-71375000D03*
D12*
X57150000Y-66675000D03*
D11*
X59750000Y-72425000D03*
%TD*%
D13*
%TO.C,R61*%
X91500000Y-100007500D03*
X91500000Y-99192500D03*
%TD*%
%TO.C,R92*%
X448650000Y-128557500D03*
X448650000Y-127742500D03*
%TD*%
%TO.C,R33*%
X367850000Y-61907500D03*
X367850000Y-61092500D03*
%TD*%
%TO.C,R62*%
X110550000Y-100007500D03*
X110550000Y-99192500D03*
%TD*%
D11*
%TO.C,SW54*%
X362312500Y-90425000D03*
D12*
X366712500Y-85725000D03*
D11*
X369312500Y-91475000D03*
%TD*%
D13*
%TO.C,R6*%
X163000000Y-33307500D03*
X163000000Y-32492500D03*
%TD*%
D11*
%TO.C,SW69*%
X238487500Y-109475000D03*
D12*
X242887500Y-104775000D03*
D11*
X245487500Y-110525000D03*
%TD*%
D10*
%TO.C,LED40*%
X83875000Y-80550000D03*
X85450000Y-80550000D03*
%TD*%
%TO.C,LED69*%
X241012500Y-99600000D03*
X242587500Y-99600000D03*
%TD*%
D11*
%TO.C,SW79*%
X114662500Y-128525000D03*
D12*
X119062500Y-123825000D03*
D11*
X121662500Y-129575000D03*
%TD*%
D13*
%TO.C,R60*%
X72450000Y-100007500D03*
X72450000Y-99192500D03*
%TD*%
D11*
%TO.C,SW74*%
X424225000Y-109475000D03*
D12*
X428625000Y-104775000D03*
D11*
X431225000Y-110525000D03*
%TD*%
D13*
%TO.C,R57*%
X303412500Y-90457500D03*
X303412500Y-89642500D03*
%TD*%
%TO.C,R21*%
X115262500Y-61907500D03*
X115262500Y-61092500D03*
%TD*%
D11*
%TO.C,SW75*%
X36081250Y-128525000D03*
D12*
X40481250Y-123825000D03*
D11*
X43081250Y-129575000D03*
%TD*%
%TO.C,SW51*%
X298018750Y-99950000D03*
D12*
X302418750Y-95250000D03*
D11*
X305018750Y-101000000D03*
%TD*%
D10*
%TO.C,LED5*%
X131625000Y-32900000D03*
X133200000Y-32900000D03*
%TD*%
%TO.C,LED96*%
X157912500Y-137700000D03*
X159487500Y-137700000D03*
%TD*%
D11*
%TO.C,SW20*%
X90850000Y-71375000D03*
D12*
X95250000Y-66675000D03*
D11*
X97850000Y-72425000D03*
%TD*%
D13*
%TO.C,R34*%
X391562500Y-61907500D03*
X391562500Y-61092500D03*
%TD*%
%TO.C,R74*%
X429650000Y-100007500D03*
X429650000Y-99192500D03*
%TD*%
D10*
%TO.C,LED39*%
X64825000Y-80550000D03*
X66400000Y-80550000D03*
%TD*%
D11*
%TO.C,SW64*%
X143237500Y-109475000D03*
D12*
X147637500Y-104775000D03*
D11*
X150237500Y-110525000D03*
%TD*%
%TO.C,SW38*%
X38462500Y-90425000D03*
D12*
X42862500Y-85725000D03*
D11*
X45462500Y-91475000D03*
%TD*%
D13*
%TO.C,R72*%
X391550000Y-100007500D03*
X391550000Y-99192500D03*
%TD*%
D10*
%TO.C,LED55*%
X407662500Y-80550000D03*
X409237500Y-80550000D03*
%TD*%
D11*
%TO.C,SW24*%
X167050000Y-71375000D03*
D12*
X171450000Y-66675000D03*
D11*
X174050000Y-72425000D03*
%TD*%
D13*
%TO.C,R73*%
X410600000Y-100007500D03*
X410600000Y-99192500D03*
%TD*%
D14*
%TO.C,H1*%
X57150000Y-109537500D03*
%TD*%
D10*
%TO.C,LED61*%
X88612500Y-99600000D03*
X90187500Y-99600000D03*
%TD*%
%TO.C,LED84*%
X212612500Y-118650000D03*
X214187500Y-118650000D03*
%TD*%
%TO.C,LED28*%
X245725000Y-61500000D03*
X247300000Y-61500000D03*
%TD*%
D13*
%TO.C,R30*%
X296362500Y-61907500D03*
X296362500Y-61092500D03*
%TD*%
D10*
%TO.C,LED4*%
X112525000Y-32900000D03*
X114100000Y-32900000D03*
%TD*%
D14*
%TO.C,H3*%
X447675000Y-109537500D03*
%TD*%
D10*
%TO.C,LED63*%
X126712500Y-99600000D03*
X128287500Y-99600000D03*
%TD*%
D13*
%TO.C,R46*%
X201062500Y-80957500D03*
X201062500Y-80142500D03*
%TD*%
D10*
%TO.C,LED50*%
X274500000Y-80550000D03*
X276075000Y-80550000D03*
%TD*%
D11*
%TO.C,SW89*%
X386125000Y-128525000D03*
D12*
X390525000Y-123825000D03*
D11*
X393125000Y-129575000D03*
%TD*%
%TO.C,SW10*%
X243250000Y-42800000D03*
D12*
X247650000Y-38100000D03*
D11*
X250250000Y-43850000D03*
%TD*%
%TO.C,SW84*%
X209912500Y-128525000D03*
D12*
X214312500Y-123825000D03*
D11*
X216912500Y-129575000D03*
%TD*%
D10*
%TO.C,LED13*%
X302912500Y-32900000D03*
X304487500Y-32900000D03*
%TD*%
D13*
%TO.C,R75*%
X41550000Y-119057500D03*
X41550000Y-118242500D03*
%TD*%
D11*
%TO.C,SW28*%
X243250000Y-71375000D03*
D12*
X247650000Y-66675000D03*
D11*
X250250000Y-72425000D03*
%TD*%
%TO.C,SW82*%
X171812500Y-128525000D03*
D12*
X176212500Y-123825000D03*
D11*
X178812500Y-129575000D03*
%TD*%
D13*
%TO.C,R49*%
X258212500Y-80957500D03*
X258212500Y-80142500D03*
%TD*%
D10*
%TO.C,LED35*%
X407725000Y-61500000D03*
X409300000Y-61500000D03*
%TD*%
D11*
%TO.C,SW48*%
X233725000Y-90425000D03*
D12*
X238125000Y-85725000D03*
D11*
X240725000Y-91475000D03*
%TD*%
%TO.C,SW70*%
X257537500Y-109475000D03*
D12*
X261937500Y-104775000D03*
D11*
X264537500Y-110525000D03*
%TD*%
D13*
%TO.C,R41*%
X105812500Y-80957500D03*
X105812500Y-80142500D03*
%TD*%
D11*
%TO.C,SW102*%
X343262500Y-147575000D03*
D12*
X347662500Y-142875000D03*
D11*
X350262500Y-148625000D03*
%TD*%
D13*
%TO.C,R78*%
X101200000Y-119057500D03*
X101200000Y-118242500D03*
%TD*%
D11*
%TO.C,SW44*%
X157525000Y-90425000D03*
D12*
X161925000Y-85725000D03*
D11*
X164525000Y-91475000D03*
%TD*%
D13*
%TO.C,R103*%
X367900000Y-138107500D03*
X367900000Y-137292500D03*
%TD*%
%TO.C,R105*%
X429800000Y-138107500D03*
X429800000Y-137292500D03*
%TD*%
D11*
%TO.C,SW27*%
X224200000Y-71375000D03*
D12*
X228600000Y-66675000D03*
D11*
X231200000Y-72425000D03*
%TD*%
%TO.C,SW95*%
X83706250Y-147575000D03*
D12*
X88106250Y-142875000D03*
D11*
X90706250Y-148625000D03*
%TD*%
D10*
%TO.C,LED15*%
X345725000Y-32900000D03*
X347300000Y-32900000D03*
%TD*%
%TO.C,LED100*%
X300712500Y-137700000D03*
X302287500Y-137700000D03*
%TD*%
%TO.C,LED54*%
X388712500Y-80550000D03*
X390287500Y-80550000D03*
%TD*%
D11*
%TO.C,SW68*%
X219437500Y-109475000D03*
D12*
X223837500Y-104775000D03*
D11*
X226437500Y-110525000D03*
%TD*%
%TO.C,SW104*%
X395650000Y-147575000D03*
D12*
X400050000Y-142875000D03*
D11*
X402650000Y-148625000D03*
%TD*%
D10*
%TO.C,LED80*%
X136412500Y-118650000D03*
X137987500Y-118650000D03*
%TD*%
D11*
%TO.C,SW78*%
X95612500Y-128525000D03*
D12*
X100012500Y-123825000D03*
D11*
X102612500Y-129575000D03*
%TD*%
D13*
%TO.C,R52*%
X348700000Y-80957500D03*
X348700000Y-80142500D03*
%TD*%
D11*
%TO.C,SW23*%
X148000000Y-71375000D03*
D12*
X152400000Y-66675000D03*
D11*
X155000000Y-72425000D03*
%TD*%
D10*
%TO.C,LED74*%
X426762500Y-99600000D03*
X428337500Y-99600000D03*
%TD*%
D13*
%TO.C,R35*%
X410612500Y-61907500D03*
X410612500Y-61092500D03*
%TD*%
D10*
%TO.C,LED71*%
X279112500Y-99600000D03*
X280687500Y-99600000D03*
%TD*%
D11*
%TO.C,SW77*%
X76562500Y-128525000D03*
D12*
X80962500Y-123825000D03*
D11*
X83562500Y-129575000D03*
%TD*%
D10*
%TO.C,LED23*%
X150475000Y-61500000D03*
X152050000Y-61500000D03*
%TD*%
D11*
%TO.C,SW4*%
X109900000Y-42800000D03*
D12*
X114300000Y-38100000D03*
D11*
X116900000Y-43850000D03*
%TD*%
%TO.C,SW96*%
X155143750Y-147575000D03*
D12*
X159543750Y-142875000D03*
D11*
X162143750Y-148625000D03*
%TD*%
D14*
%TO.C,H4*%
X232850000Y-39225000D03*
%TD*%
D10*
%TO.C,LED62*%
X107662500Y-99600000D03*
X109237500Y-99600000D03*
%TD*%
%TO.C,LED22*%
X131425000Y-61500000D03*
X133000000Y-61500000D03*
%TD*%
%TO.C,LED101*%
X326912500Y-137700000D03*
X328487500Y-137700000D03*
%TD*%
%TO.C,LED57*%
X300525000Y-90050000D03*
X302100000Y-90050000D03*
%TD*%
%TO.C,LED60*%
X69562500Y-99600000D03*
X71137500Y-99600000D03*
%TD*%
%TO.C,LED77*%
X79262500Y-118650000D03*
X80837500Y-118650000D03*
%TD*%
D13*
%TO.C,R4*%
X115412500Y-33307500D03*
X115412500Y-32492500D03*
%TD*%
%TO.C,R93*%
X41700000Y-138107500D03*
X41700000Y-137292500D03*
%TD*%
D11*
%TO.C,SW40*%
X81325000Y-90425000D03*
D12*
X85725000Y-85725000D03*
D11*
X88325000Y-91475000D03*
%TD*%
%TO.C,SW9*%
X214675000Y-42800000D03*
D12*
X219075000Y-38100000D03*
D11*
X221675000Y-43850000D03*
%TD*%
D10*
%TO.C,LED2*%
X74387500Y-32900000D03*
X75962500Y-32900000D03*
%TD*%
D13*
%TO.C,R104*%
X401162500Y-138107500D03*
X401162500Y-137292500D03*
%TD*%
D11*
%TO.C,SW56*%
X405175000Y-90425000D03*
D12*
X409575000Y-85725000D03*
D11*
X412175000Y-91475000D03*
%TD*%
%TO.C,SW19*%
X71800000Y-71375000D03*
D12*
X76200000Y-66675000D03*
D11*
X78800000Y-72425000D03*
%TD*%
D10*
%TO.C,LED46*%
X198175000Y-80550000D03*
X199750000Y-80550000D03*
%TD*%
%TO.C,LED89*%
X388775000Y-118650000D03*
X390350000Y-118650000D03*
%TD*%
%TO.C,LED34*%
X388675000Y-61500000D03*
X390250000Y-61500000D03*
%TD*%
D13*
%TO.C,R16*%
X367662500Y-33307500D03*
X367662500Y-32492500D03*
%TD*%
D11*
%TO.C,SW81*%
X152762500Y-128525000D03*
D12*
X157162500Y-123825000D03*
D11*
X159762500Y-129575000D03*
%TD*%
D13*
%TO.C,R44*%
X162962500Y-80957500D03*
X162962500Y-80142500D03*
%TD*%
D11*
%TO.C,SW30*%
X290875000Y-71375000D03*
D12*
X295275000Y-66675000D03*
D11*
X297875000Y-72425000D03*
%TD*%
%TO.C,SW100*%
X298018750Y-147575000D03*
D12*
X302418750Y-142875000D03*
D11*
X305018750Y-148625000D03*
%TD*%
D10*
%TO.C,LED97*%
X229275000Y-137700000D03*
X230850000Y-137700000D03*
%TD*%
%TO.C,LED105*%
X426912500Y-137700000D03*
X428487500Y-137700000D03*
%TD*%
D11*
%TO.C,SW72*%
X386125000Y-109475000D03*
D12*
X390525000Y-104775000D03*
D11*
X393125000Y-110525000D03*
%TD*%
D10*
%TO.C,LED43*%
X141025000Y-80550000D03*
X142600000Y-80550000D03*
%TD*%
D13*
%TO.C,R67*%
X205800000Y-100007500D03*
X205800000Y-99192500D03*
%TD*%
D10*
%TO.C,LED78*%
X98312500Y-118650000D03*
X99887500Y-118650000D03*
%TD*%
D11*
%TO.C,SW80*%
X133712500Y-128525000D03*
D12*
X138112500Y-123825000D03*
D11*
X140712500Y-129575000D03*
%TD*%
D13*
%TO.C,R26*%
X210512500Y-61907500D03*
X210512500Y-61092500D03*
%TD*%
D10*
%TO.C,LED92*%
X445762500Y-128150000D03*
X447337500Y-128150000D03*
%TD*%
D11*
%TO.C,SW101*%
X324212500Y-147575000D03*
D12*
X328612500Y-142875000D03*
D11*
X331212500Y-148625000D03*
%TD*%
D10*
%TO.C,LED51*%
X326762500Y-80550000D03*
X328337500Y-80550000D03*
%TD*%
D11*
%TO.C,SW15*%
X343262500Y-42800000D03*
D12*
X347662500Y-38100000D03*
D11*
X350262500Y-43850000D03*
%TD*%
%TO.C,SW2*%
X71800000Y-42800000D03*
D12*
X76200000Y-38100000D03*
D11*
X78800000Y-43850000D03*
%TD*%
%TO.C,SW59*%
X40843750Y-109475000D03*
D12*
X45243750Y-104775000D03*
D11*
X47843750Y-110525000D03*
%TD*%
D13*
%TO.C,R12*%
X286800000Y-33307500D03*
X286800000Y-32492500D03*
%TD*%
D10*
%TO.C,LED52*%
X345812500Y-80550000D03*
X347387500Y-80550000D03*
%TD*%
D13*
%TO.C,R99*%
X279900000Y-138107500D03*
X279900000Y-137292500D03*
%TD*%
%TO.C,R28*%
X248612500Y-61907500D03*
X248612500Y-61092500D03*
%TD*%
D11*
%TO.C,SW1*%
X33700000Y-42800000D03*
D12*
X38100000Y-38100000D03*
D11*
X40700000Y-43850000D03*
%TD*%
D13*
%TO.C,R77*%
X82150000Y-119057500D03*
X82150000Y-118242500D03*
%TD*%
D10*
%TO.C,LED94*%
X62562500Y-137700000D03*
X64137500Y-137700000D03*
%TD*%
%TO.C,LED65*%
X164812500Y-99600000D03*
X166387500Y-99600000D03*
%TD*%
%TO.C,LED29*%
X264775000Y-61500000D03*
X266350000Y-61500000D03*
%TD*%
%TO.C,LED14*%
X326675000Y-32900000D03*
X328250000Y-32900000D03*
%TD*%
%TO.C,LED98*%
X253162500Y-137700000D03*
X254737500Y-137700000D03*
%TD*%
D11*
%TO.C,SW99*%
X274206250Y-147575000D03*
D12*
X278606250Y-142875000D03*
D11*
X281206250Y-148625000D03*
%TD*%
%TO.C,SW41*%
X100375000Y-90425000D03*
D12*
X104775000Y-85725000D03*
D11*
X107375000Y-91475000D03*
%TD*%
D13*
%TO.C,R43*%
X143912500Y-80957500D03*
X143912500Y-80142500D03*
%TD*%
D10*
%TO.C,LED42*%
X121975000Y-80550000D03*
X123550000Y-80550000D03*
%TD*%
%TO.C,LED11*%
X264912500Y-32900000D03*
X266487500Y-32900000D03*
%TD*%
D11*
%TO.C,SW32*%
X343262500Y-71375000D03*
D12*
X347662500Y-66675000D03*
D11*
X350262500Y-72425000D03*
%TD*%
D10*
%TO.C,LED49*%
X255325000Y-80550000D03*
X256900000Y-80550000D03*
%TD*%
D11*
%TO.C,SW85*%
X228962500Y-128525000D03*
D12*
X233362500Y-123825000D03*
D11*
X235962500Y-129575000D03*
%TD*%
D13*
%TO.C,R18*%
X58112500Y-61907500D03*
X58112500Y-61092500D03*
%TD*%
%TO.C,R14*%
X329562500Y-33307500D03*
X329562500Y-32492500D03*
%TD*%
%TO.C,R53*%
X367750000Y-80957500D03*
X367750000Y-80142500D03*
%TD*%
D10*
%TO.C,LED48*%
X236275000Y-80550000D03*
X237850000Y-80550000D03*
%TD*%
%TO.C,LED12*%
X283912500Y-32900000D03*
X285487500Y-32900000D03*
%TD*%
D13*
%TO.C,R63*%
X129600000Y-100007500D03*
X129600000Y-99192500D03*
%TD*%
D11*
%TO.C,SW52*%
X324212500Y-90425000D03*
D12*
X328612500Y-85725000D03*
D11*
X331212500Y-91475000D03*
%TD*%
D15*
%TO.C,U1*%
X453035000Y-50870000D03*
X450495000Y-50870000D03*
D16*
X447955000Y-50870000D03*
D15*
X445415000Y-50870000D03*
X442875000Y-50870000D03*
X440335000Y-50870000D03*
X437795000Y-50870000D03*
D16*
X435255000Y-50870000D03*
D15*
X432715000Y-50870000D03*
X430175000Y-50870000D03*
X427635000Y-50870000D03*
X425095000Y-50870000D03*
D16*
X422555000Y-50870000D03*
D15*
X420015000Y-50870000D03*
X417475000Y-50870000D03*
X414935000Y-50870000D03*
X412395000Y-50870000D03*
D16*
X409855000Y-50870000D03*
D15*
X407315000Y-50870000D03*
X404775000Y-50870000D03*
X404775000Y-33090000D03*
X407315000Y-33090000D03*
D16*
X409855000Y-33090000D03*
D15*
X412395000Y-33090000D03*
X414935000Y-33090000D03*
X417475000Y-33090000D03*
X420015000Y-33090000D03*
D16*
X422555000Y-33090000D03*
D15*
X425095000Y-33090000D03*
X427635000Y-33090000D03*
X430175000Y-33090000D03*
X432715000Y-33090000D03*
D16*
X435255000Y-33090000D03*
D15*
X437795000Y-33090000D03*
X440335000Y-33090000D03*
X442875000Y-33090000D03*
X445415000Y-33090000D03*
D16*
X447955000Y-33090000D03*
D15*
X450495000Y-33090000D03*
X453035000Y-33090000D03*
X423205000Y-41360000D03*
D16*
X423205000Y-38820000D03*
D15*
X423205000Y-36280000D03*
%TD*%
M02*
