%TF.GenerationSoftware,KiCad,Pcbnew,8.0.8*%
%TF.CreationDate,2025-04-08T21:15:21+02:00*%
%TF.ProjectId,TP-Board-iso105,54502d42-6f61-4726-942d-69736f313035,rev?*%
%TF.SameCoordinates,Original*%
%TF.FileFunction,Soldermask,Bot*%
%TF.FilePolarity,Negative*%
%FSLAX46Y46*%
G04 Gerber Fmt 4.6, Leading zero omitted, Abs format (unit mm)*
G04 Created by KiCad (PCBNEW 8.0.8) date 2025-04-08 21:15:21*
%MOMM*%
%LPD*%
G01*
G04 APERTURE LIST*
G04 Aperture macros list*
%AMRoundRect*
0 Rectangle with rounded corners*
0 $1 Rounding radius*
0 $2 $3 $4 $5 $6 $7 $8 $9 X,Y pos of 4 corners*
0 Add a 4 corners polygon primitive as box body*
4,1,4,$2,$3,$4,$5,$6,$7,$8,$9,$2,$3,0*
0 Add four circle primitives for the rounded corners*
1,1,$1+$1,$2,$3*
1,1,$1+$1,$4,$5*
1,1,$1+$1,$6,$7*
1,1,$1+$1,$8,$9*
0 Add four rect primitives between the rounded corners*
20,1,$1+$1,$2,$3,$4,$5,0*
20,1,$1+$1,$4,$5,$6,$7,0*
20,1,$1+$1,$6,$7,$8,$9,0*
20,1,$1+$1,$8,$9,$2,$3,0*%
G04 Aperture macros list end*
%ADD10C,3.000000*%
%ADD11C,5.100000*%
%ADD12R,2.550000X2.550000*%
%ADD13C,2.200000*%
%ADD14RoundRect,0.150000X0.200000X-0.150000X0.200000X0.150000X-0.200000X0.150000X-0.200000X-0.150000X0*%
%ADD15O,1.700000X1.700000*%
%ADD16R,1.700000X3.500000*%
%ADD17R,1.700000X1.700000*%
G04 APERTURE END LIST*
D10*
%TO.C,SW26*%
X205150000Y-71375000D03*
D11*
X209550000Y-66675000D03*
D10*
X212150000Y-72425000D03*
D12*
X201275000Y-71375000D03*
X216025000Y-72425000D03*
%TD*%
D10*
%TO.C,SW71*%
X276587500Y-109475000D03*
D11*
X280987500Y-104775000D03*
D10*
X283587500Y-110525000D03*
D12*
X272712500Y-109475000D03*
X287462500Y-110525000D03*
%TD*%
D10*
%TO.C,SW67*%
X200387500Y-109475000D03*
D11*
X204787500Y-104775000D03*
D10*
X207387500Y-110525000D03*
D12*
X196512500Y-109475000D03*
X211262500Y-110525000D03*
%TD*%
D10*
%TO.C,SW42*%
X119425000Y-90425000D03*
D11*
X123825000Y-85725000D03*
D10*
X126425000Y-91475000D03*
D12*
X115550000Y-90425000D03*
X130300000Y-91475000D03*
%TD*%
D10*
%TO.C,SW66*%
X181337500Y-109475000D03*
D11*
X185737500Y-104775000D03*
D10*
X188337500Y-110525000D03*
D12*
X177462500Y-109475000D03*
X192212500Y-110525000D03*
%TD*%
D10*
%TO.C,SW21*%
X109900000Y-71375000D03*
D11*
X114300000Y-66675000D03*
D10*
X116900000Y-72425000D03*
D12*
X106025000Y-71375000D03*
X120775000Y-72425000D03*
%TD*%
D10*
%TO.C,SW16*%
X362312500Y-42800000D03*
D11*
X366712500Y-38100000D03*
D10*
X369312500Y-43850000D03*
D12*
X358437500Y-42800000D03*
X373187500Y-43850000D03*
%TD*%
D10*
%TO.C,SW76*%
X57512500Y-128525000D03*
D11*
X61912500Y-123825000D03*
D10*
X64512500Y-129575000D03*
D12*
X53637500Y-128525000D03*
X68387500Y-129575000D03*
%TD*%
D10*
%TO.C,SW58*%
X443275000Y-99950000D03*
D11*
X447675000Y-95250000D03*
D10*
X450275000Y-101000000D03*
D12*
X439400000Y-99950000D03*
X454150000Y-101000000D03*
%TD*%
D10*
%TO.C,SW88*%
X343262500Y-128525000D03*
D11*
X347662500Y-123825000D03*
D10*
X350262500Y-129575000D03*
D12*
X339387500Y-128525000D03*
X354137500Y-129575000D03*
%TD*%
D10*
%TO.C,SW50*%
X271825000Y-90425000D03*
D11*
X276225000Y-85725000D03*
D10*
X278825000Y-91475000D03*
D12*
X267950000Y-90425000D03*
X282700000Y-91475000D03*
%TD*%
D10*
%TO.C,SW87*%
X283731250Y-128525000D03*
D11*
X288131250Y-123825000D03*
D10*
X290731250Y-129575000D03*
D12*
X279856250Y-128525000D03*
X294606250Y-129575000D03*
%TD*%
D10*
%TO.C,SW57*%
X424225000Y-90425000D03*
D11*
X428625000Y-85725000D03*
D10*
X431225000Y-91475000D03*
D12*
X420350000Y-90425000D03*
X435100000Y-91475000D03*
%TD*%
D10*
%TO.C,SW34*%
X386125000Y-71375000D03*
D11*
X390525000Y-66675000D03*
D10*
X393125000Y-72425000D03*
D12*
X382250000Y-71375000D03*
X397000000Y-72425000D03*
%TD*%
D10*
%TO.C,SW14*%
X324212500Y-42800000D03*
D11*
X328612500Y-38100000D03*
D10*
X331212500Y-43850000D03*
D12*
X320337500Y-42800000D03*
X335087500Y-43850000D03*
%TD*%
D10*
%TO.C,SW22*%
X128950000Y-71375000D03*
D11*
X133350000Y-66675000D03*
D10*
X135950000Y-72425000D03*
D12*
X125075000Y-71375000D03*
X139825000Y-72425000D03*
%TD*%
D10*
%TO.C,SW11*%
X262300000Y-42800000D03*
D11*
X266700000Y-38100000D03*
D10*
X269300000Y-43850000D03*
D12*
X258425000Y-42800000D03*
X273175000Y-43850000D03*
%TD*%
D10*
%TO.C,SW12*%
X281350000Y-42800000D03*
D11*
X285750000Y-38100000D03*
D10*
X288350000Y-43850000D03*
D12*
X277475000Y-42800000D03*
X292225000Y-43850000D03*
%TD*%
D10*
%TO.C,SW94*%
X59893750Y-147575000D03*
D11*
X64293750Y-142875000D03*
D10*
X66893750Y-148625000D03*
D12*
X56018750Y-147575000D03*
X70768750Y-148625000D03*
%TD*%
D10*
%TO.C,SW55*%
X386125000Y-90425000D03*
D11*
X390525000Y-85725000D03*
D10*
X393125000Y-91475000D03*
D12*
X382250000Y-90425000D03*
X397000000Y-91475000D03*
%TD*%
D10*
%TO.C,SW83*%
X190862500Y-128525000D03*
D11*
X195262500Y-123825000D03*
D10*
X197862500Y-129575000D03*
D12*
X186987500Y-128525000D03*
X201737500Y-129575000D03*
%TD*%
D10*
%TO.C,SW5*%
X128950000Y-42800000D03*
D11*
X133350000Y-38100000D03*
D10*
X135950000Y-43850000D03*
D12*
X125075000Y-42800000D03*
X139825000Y-43850000D03*
%TD*%
D10*
%TO.C,SW73*%
X405175000Y-109475000D03*
D11*
X409575000Y-104775000D03*
D10*
X412175000Y-110525000D03*
D12*
X401300000Y-109475000D03*
X416050000Y-110525000D03*
%TD*%
D10*
%TO.C,SW8*%
X195625000Y-42800000D03*
D11*
X200025000Y-38100000D03*
D10*
X202625000Y-43850000D03*
D12*
X191750000Y-42800000D03*
X206500000Y-43850000D03*
%TD*%
D10*
%TO.C,SW86*%
X248012500Y-128525000D03*
D11*
X252412500Y-123825000D03*
D10*
X255012500Y-129575000D03*
D12*
X244137500Y-128525000D03*
X258887500Y-129575000D03*
%TD*%
D10*
%TO.C,SW45*%
X176575000Y-90425000D03*
D11*
X180975000Y-85725000D03*
D10*
X183575000Y-91475000D03*
D12*
X172700000Y-90425000D03*
X187450000Y-91475000D03*
%TD*%
D10*
%TO.C,SW91*%
X424225000Y-128525000D03*
D11*
X428625000Y-123825000D03*
D10*
X431225000Y-129575000D03*
D12*
X420350000Y-128525000D03*
X435100000Y-129575000D03*
%TD*%
D10*
%TO.C,SW90*%
X405175000Y-128525000D03*
D11*
X409575000Y-123825000D03*
D10*
X412175000Y-129575000D03*
D12*
X401300000Y-128525000D03*
X416050000Y-129575000D03*
%TD*%
D10*
%TO.C,SW92*%
X443275000Y-138050000D03*
D11*
X447675000Y-133350000D03*
D10*
X450275000Y-139100000D03*
D12*
X439400000Y-138050000D03*
X454150000Y-139100000D03*
%TD*%
D10*
%TO.C,SW98*%
X250393750Y-147575000D03*
D11*
X254793750Y-142875000D03*
D10*
X257393750Y-148625000D03*
D12*
X246518750Y-147575000D03*
X261268750Y-148625000D03*
%TD*%
D13*
%TO.C,H2*%
X300037500Y-109537500D03*
%TD*%
D10*
%TO.C,SW37*%
X443275000Y-71375000D03*
D11*
X447675000Y-66675000D03*
D10*
X450275000Y-72425000D03*
D12*
X439400000Y-71375000D03*
X454150000Y-72425000D03*
%TD*%
D10*
%TO.C,SW62*%
X105137500Y-109475000D03*
D11*
X109537500Y-104775000D03*
D10*
X112137500Y-110525000D03*
D12*
X101262500Y-109475000D03*
X116012500Y-110525000D03*
%TD*%
D10*
%TO.C,SW7*%
X176575000Y-42800000D03*
D11*
X180975000Y-38100000D03*
D10*
X183575000Y-43850000D03*
D12*
X172700000Y-42800000D03*
X187450000Y-43850000D03*
%TD*%
D10*
%TO.C,SW3*%
X90850000Y-42800000D03*
D11*
X95250000Y-38100000D03*
D10*
X97850000Y-43850000D03*
D12*
X86975000Y-42800000D03*
X101725000Y-43850000D03*
%TD*%
D10*
%TO.C,SW65*%
X162287500Y-109475000D03*
D11*
X166687500Y-104775000D03*
D10*
X169287500Y-110525000D03*
D12*
X158412500Y-109475000D03*
X173162500Y-110525000D03*
%TD*%
D10*
%TO.C,SW46*%
X195625000Y-90425000D03*
D11*
X200025000Y-85725000D03*
D10*
X202625000Y-91475000D03*
D12*
X191750000Y-90425000D03*
X206500000Y-91475000D03*
%TD*%
D10*
%TO.C,SW49*%
X252775000Y-90425000D03*
D11*
X257175000Y-85725000D03*
D10*
X259775000Y-91475000D03*
D12*
X248900000Y-90425000D03*
X263650000Y-91475000D03*
%TD*%
D10*
%TO.C,SW33*%
X362312500Y-71375000D03*
D11*
X366712500Y-66675000D03*
D10*
X369312500Y-72425000D03*
D12*
X358437500Y-71375000D03*
X373187500Y-72425000D03*
%TD*%
D10*
%TO.C,SW103*%
X362312500Y-147575000D03*
D11*
X366712500Y-142875000D03*
D10*
X369312500Y-148625000D03*
D12*
X358437500Y-147575000D03*
X373187500Y-148625000D03*
%TD*%
D10*
%TO.C,SW63*%
X124187500Y-109475000D03*
D11*
X128587500Y-104775000D03*
D10*
X131187500Y-110525000D03*
D12*
X120312500Y-109475000D03*
X135062500Y-110525000D03*
%TD*%
D10*
%TO.C,SW43*%
X138475000Y-90425000D03*
D11*
X142875000Y-85725000D03*
D10*
X145475000Y-91475000D03*
D12*
X134600000Y-90425000D03*
X149350000Y-91475000D03*
%TD*%
D10*
%TO.C,SW53*%
X343262500Y-90425000D03*
D11*
X347662500Y-85725000D03*
D10*
X350262500Y-91475000D03*
D12*
X339387500Y-90425000D03*
X354137500Y-91475000D03*
%TD*%
D10*
%TO.C,SW61*%
X86087500Y-109475000D03*
D11*
X90487500Y-104775000D03*
D10*
X93087500Y-110525000D03*
D12*
X82212500Y-109475000D03*
X96962500Y-110525000D03*
%TD*%
D10*
%TO.C,SW36*%
X424225000Y-71375000D03*
D11*
X428625000Y-66675000D03*
D10*
X431225000Y-72425000D03*
D12*
X420350000Y-71375000D03*
X435100000Y-72425000D03*
%TD*%
D10*
%TO.C,SW35*%
X405175000Y-71375000D03*
D11*
X409575000Y-66675000D03*
D10*
X412175000Y-72425000D03*
D12*
X401300000Y-71375000D03*
X416050000Y-72425000D03*
%TD*%
D10*
%TO.C,SW25*%
X186100000Y-71375000D03*
D11*
X190500000Y-66675000D03*
D10*
X193100000Y-72425000D03*
D12*
X182225000Y-71375000D03*
X196975000Y-72425000D03*
%TD*%
D10*
%TO.C,SW97*%
X226581250Y-147575000D03*
D11*
X230981250Y-142875000D03*
D10*
X233581250Y-148625000D03*
D12*
X222706250Y-147575000D03*
X237456250Y-148625000D03*
%TD*%
D10*
%TO.C,SW93*%
X36081250Y-147575000D03*
D11*
X40481250Y-142875000D03*
D10*
X43081250Y-148625000D03*
D12*
X32206250Y-147575000D03*
X46956250Y-148625000D03*
%TD*%
D10*
%TO.C,SW39*%
X62275000Y-90425000D03*
D11*
X66675000Y-85725000D03*
D10*
X69275000Y-91475000D03*
D12*
X58400000Y-90425000D03*
X73150000Y-91475000D03*
%TD*%
D10*
%TO.C,SW31*%
X324212500Y-71375000D03*
D11*
X328612500Y-66675000D03*
D10*
X331212500Y-72425000D03*
D12*
X320337500Y-71375000D03*
X335087500Y-72425000D03*
%TD*%
D10*
%TO.C,SW47*%
X214675000Y-90425000D03*
D11*
X219075000Y-85725000D03*
D10*
X221675000Y-91475000D03*
D12*
X210800000Y-90425000D03*
X225550000Y-91475000D03*
%TD*%
D10*
%TO.C,SW60*%
X67037500Y-109475000D03*
D11*
X71437500Y-104775000D03*
D10*
X74037500Y-110525000D03*
D12*
X63162500Y-109475000D03*
X77912500Y-110525000D03*
%TD*%
D10*
%TO.C,SW29*%
X262300000Y-71375000D03*
D11*
X266700000Y-66675000D03*
D10*
X269300000Y-72425000D03*
D12*
X258425000Y-71375000D03*
X273175000Y-72425000D03*
%TD*%
D10*
%TO.C,SW6*%
X157525000Y-42800000D03*
D11*
X161925000Y-38100000D03*
D10*
X164525000Y-43850000D03*
D12*
X153650000Y-42800000D03*
X168400000Y-43850000D03*
%TD*%
D10*
%TO.C,SW13*%
X300400000Y-42800000D03*
D11*
X304800000Y-38100000D03*
D10*
X307400000Y-43850000D03*
D12*
X296525000Y-42800000D03*
X311275000Y-43850000D03*
%TD*%
D10*
%TO.C,SW17*%
X33700000Y-71375000D03*
D11*
X38100000Y-66675000D03*
D10*
X40700000Y-72425000D03*
D12*
X29825000Y-71375000D03*
X44575000Y-72425000D03*
%TD*%
D10*
%TO.C,SW105*%
X424225000Y-147575000D03*
D11*
X428625000Y-142875000D03*
D10*
X431225000Y-148625000D03*
D12*
X420350000Y-147575000D03*
X435100000Y-148625000D03*
%TD*%
D10*
%TO.C,SW18*%
X52750000Y-71375000D03*
D11*
X57150000Y-66675000D03*
D10*
X59750000Y-72425000D03*
D12*
X48875000Y-71375000D03*
X63625000Y-72425000D03*
%TD*%
D10*
%TO.C,SW54*%
X362312500Y-90425000D03*
D11*
X366712500Y-85725000D03*
D10*
X369312500Y-91475000D03*
D12*
X358437500Y-90425000D03*
X373187500Y-91475000D03*
%TD*%
D10*
%TO.C,SW69*%
X238487500Y-109475000D03*
D11*
X242887500Y-104775000D03*
D10*
X245487500Y-110525000D03*
D12*
X234612500Y-109475000D03*
X249362500Y-110525000D03*
%TD*%
D10*
%TO.C,SW79*%
X114662500Y-128525000D03*
D11*
X119062500Y-123825000D03*
D10*
X121662500Y-129575000D03*
D12*
X110787500Y-128525000D03*
X125537500Y-129575000D03*
%TD*%
D10*
%TO.C,SW74*%
X424225000Y-109475000D03*
D11*
X428625000Y-104775000D03*
D10*
X431225000Y-110525000D03*
D12*
X420350000Y-109475000D03*
X435100000Y-110525000D03*
%TD*%
D10*
%TO.C,SW75*%
X36081250Y-128525000D03*
D11*
X40481250Y-123825000D03*
D10*
X43081250Y-129575000D03*
D12*
X32206250Y-128525000D03*
X46956250Y-129575000D03*
%TD*%
D10*
%TO.C,SW51*%
X298018750Y-99950000D03*
D11*
X302418750Y-95250000D03*
D10*
X305018750Y-101000000D03*
D12*
X294143750Y-99950000D03*
X308893750Y-101000000D03*
%TD*%
D10*
%TO.C,SW20*%
X90850000Y-71375000D03*
D11*
X95250000Y-66675000D03*
D10*
X97850000Y-72425000D03*
D12*
X86975000Y-71375000D03*
X101725000Y-72425000D03*
%TD*%
D10*
%TO.C,SW64*%
X143237500Y-109475000D03*
D11*
X147637500Y-104775000D03*
D10*
X150237500Y-110525000D03*
D12*
X139362500Y-109475000D03*
X154112500Y-110525000D03*
%TD*%
D10*
%TO.C,SW38*%
X38462500Y-90425000D03*
D11*
X42862500Y-85725000D03*
D10*
X45462500Y-91475000D03*
D12*
X34587500Y-90425000D03*
X49337500Y-91475000D03*
%TD*%
D10*
%TO.C,SW24*%
X167050000Y-71375000D03*
D11*
X171450000Y-66675000D03*
D10*
X174050000Y-72425000D03*
D12*
X163175000Y-71375000D03*
X177925000Y-72425000D03*
%TD*%
D13*
%TO.C,H1*%
X57150000Y-109537500D03*
%TD*%
%TO.C,H3*%
X447675000Y-109537500D03*
%TD*%
D10*
%TO.C,SW89*%
X386125000Y-128525000D03*
D11*
X390525000Y-123825000D03*
D10*
X393125000Y-129575000D03*
D12*
X382250000Y-128525000D03*
X397000000Y-129575000D03*
%TD*%
D10*
%TO.C,SW10*%
X243250000Y-42800000D03*
D11*
X247650000Y-38100000D03*
D10*
X250250000Y-43850000D03*
D12*
X239375000Y-42800000D03*
X254125000Y-43850000D03*
%TD*%
D10*
%TO.C,SW84*%
X209912500Y-128525000D03*
D11*
X214312500Y-123825000D03*
D10*
X216912500Y-129575000D03*
D12*
X206037500Y-128525000D03*
X220787500Y-129575000D03*
%TD*%
D10*
%TO.C,SW28*%
X243250000Y-71375000D03*
D11*
X247650000Y-66675000D03*
D10*
X250250000Y-72425000D03*
D12*
X239375000Y-71375000D03*
X254125000Y-72425000D03*
%TD*%
D10*
%TO.C,SW82*%
X171812500Y-128525000D03*
D11*
X176212500Y-123825000D03*
D10*
X178812500Y-129575000D03*
D12*
X167937500Y-128525000D03*
X182687500Y-129575000D03*
%TD*%
D10*
%TO.C,SW48*%
X233725000Y-90425000D03*
D11*
X238125000Y-85725000D03*
D10*
X240725000Y-91475000D03*
D12*
X229850000Y-90425000D03*
X244600000Y-91475000D03*
%TD*%
D10*
%TO.C,SW70*%
X257537500Y-109475000D03*
D11*
X261937500Y-104775000D03*
D10*
X264537500Y-110525000D03*
D12*
X253662500Y-109475000D03*
X268412500Y-110525000D03*
%TD*%
D10*
%TO.C,SW102*%
X343262500Y-147575000D03*
D11*
X347662500Y-142875000D03*
D10*
X350262500Y-148625000D03*
D12*
X339387500Y-147575000D03*
X354137500Y-148625000D03*
%TD*%
D10*
%TO.C,SW44*%
X157525000Y-90425000D03*
D11*
X161925000Y-85725000D03*
D10*
X164525000Y-91475000D03*
D12*
X153650000Y-90425000D03*
X168400000Y-91475000D03*
%TD*%
D10*
%TO.C,SW27*%
X224200000Y-71375000D03*
D11*
X228600000Y-66675000D03*
D10*
X231200000Y-72425000D03*
D12*
X220325000Y-71375000D03*
X235075000Y-72425000D03*
%TD*%
D10*
%TO.C,SW95*%
X83706250Y-147575000D03*
D11*
X88106250Y-142875000D03*
D10*
X90706250Y-148625000D03*
D12*
X79831250Y-147575000D03*
X94581250Y-148625000D03*
%TD*%
D10*
%TO.C,SW68*%
X219437500Y-109475000D03*
D11*
X223837500Y-104775000D03*
D10*
X226437500Y-110525000D03*
D12*
X215562500Y-109475000D03*
X230312500Y-110525000D03*
%TD*%
D10*
%TO.C,SW104*%
X395650000Y-147575000D03*
D11*
X400050000Y-142875000D03*
D10*
X402650000Y-148625000D03*
D12*
X391775000Y-147575000D03*
X406525000Y-148625000D03*
%TD*%
D10*
%TO.C,SW78*%
X95612500Y-128525000D03*
D11*
X100012500Y-123825000D03*
D10*
X102612500Y-129575000D03*
D12*
X91737500Y-128525000D03*
X106487500Y-129575000D03*
%TD*%
D10*
%TO.C,SW23*%
X148000000Y-71375000D03*
D11*
X152400000Y-66675000D03*
D10*
X155000000Y-72425000D03*
D12*
X144125000Y-71375000D03*
X158875000Y-72425000D03*
%TD*%
D10*
%TO.C,SW77*%
X76562500Y-128525000D03*
D11*
X80962500Y-123825000D03*
D10*
X83562500Y-129575000D03*
D12*
X72687500Y-128525000D03*
X87437500Y-129575000D03*
%TD*%
D10*
%TO.C,SW4*%
X109900000Y-42800000D03*
D11*
X114300000Y-38100000D03*
D10*
X116900000Y-43850000D03*
D12*
X106025000Y-42800000D03*
X120775000Y-43850000D03*
%TD*%
D10*
%TO.C,SW96*%
X155143750Y-147575000D03*
D11*
X159543750Y-142875000D03*
D10*
X162143750Y-148625000D03*
D12*
X151268750Y-147575000D03*
X166018750Y-148625000D03*
%TD*%
D13*
%TO.C,H4*%
X232850000Y-39225000D03*
%TD*%
D10*
%TO.C,SW40*%
X81325000Y-90425000D03*
D11*
X85725000Y-85725000D03*
D10*
X88325000Y-91475000D03*
D12*
X77450000Y-90425000D03*
X92200000Y-91475000D03*
%TD*%
D10*
%TO.C,SW9*%
X214675000Y-42800000D03*
D11*
X219075000Y-38100000D03*
D10*
X221675000Y-43850000D03*
D12*
X210800000Y-42800000D03*
X225550000Y-43850000D03*
%TD*%
D10*
%TO.C,SW56*%
X405175000Y-90425000D03*
D11*
X409575000Y-85725000D03*
D10*
X412175000Y-91475000D03*
D12*
X401300000Y-90425000D03*
X416050000Y-91475000D03*
%TD*%
D10*
%TO.C,SW19*%
X71800000Y-71375000D03*
D11*
X76200000Y-66675000D03*
D10*
X78800000Y-72425000D03*
D12*
X67925000Y-71375000D03*
X82675000Y-72425000D03*
%TD*%
D10*
%TO.C,SW81*%
X152762500Y-128525000D03*
D11*
X157162500Y-123825000D03*
D10*
X159762500Y-129575000D03*
D12*
X148887500Y-128525000D03*
X163637500Y-129575000D03*
%TD*%
D10*
%TO.C,SW30*%
X290875000Y-71375000D03*
D11*
X295275000Y-66675000D03*
D10*
X297875000Y-72425000D03*
D12*
X287000000Y-71375000D03*
X301750000Y-72425000D03*
%TD*%
D10*
%TO.C,SW100*%
X298018750Y-147575000D03*
D11*
X302418750Y-142875000D03*
D10*
X305018750Y-148625000D03*
D12*
X294143750Y-147575000D03*
X308893750Y-148625000D03*
%TD*%
D10*
%TO.C,SW72*%
X386125000Y-109475000D03*
D11*
X390525000Y-104775000D03*
D10*
X393125000Y-110525000D03*
D12*
X382250000Y-109475000D03*
X397000000Y-110525000D03*
%TD*%
D10*
%TO.C,SW80*%
X133712500Y-128525000D03*
D11*
X138112500Y-123825000D03*
D10*
X140712500Y-129575000D03*
D12*
X129837500Y-128525000D03*
X144587500Y-129575000D03*
%TD*%
D10*
%TO.C,SW101*%
X324212500Y-147575000D03*
D11*
X328612500Y-142875000D03*
D10*
X331212500Y-148625000D03*
D12*
X320337500Y-147575000D03*
X335087500Y-148625000D03*
%TD*%
D10*
%TO.C,SW15*%
X343262500Y-42800000D03*
D11*
X347662500Y-38100000D03*
D10*
X350262500Y-43850000D03*
D12*
X339387500Y-42800000D03*
X354137500Y-43850000D03*
%TD*%
D10*
%TO.C,SW2*%
X71800000Y-42800000D03*
D11*
X76200000Y-38100000D03*
D10*
X78800000Y-43850000D03*
D12*
X67925000Y-42800000D03*
X82675000Y-43850000D03*
%TD*%
D10*
%TO.C,SW59*%
X40843750Y-109475000D03*
D11*
X45243750Y-104775000D03*
D10*
X47843750Y-110525000D03*
D12*
X36968750Y-109475000D03*
X51718750Y-110525000D03*
%TD*%
D10*
%TO.C,SW1*%
X33700000Y-42800000D03*
D11*
X38100000Y-38100000D03*
D10*
X40700000Y-43850000D03*
D12*
X29825000Y-42800000D03*
X44575000Y-43850000D03*
%TD*%
D10*
%TO.C,SW99*%
X274206250Y-147575000D03*
D11*
X278606250Y-142875000D03*
D10*
X281206250Y-148625000D03*
D12*
X270331250Y-147575000D03*
X285081250Y-148625000D03*
%TD*%
D10*
%TO.C,SW41*%
X100375000Y-90425000D03*
D11*
X104775000Y-85725000D03*
D10*
X107375000Y-91475000D03*
D12*
X96500000Y-90425000D03*
X111250000Y-91475000D03*
%TD*%
D10*
%TO.C,SW32*%
X343262500Y-71375000D03*
D11*
X347662500Y-66675000D03*
D10*
X350262500Y-72425000D03*
D12*
X339387500Y-71375000D03*
X354137500Y-72425000D03*
%TD*%
D10*
%TO.C,SW85*%
X228962500Y-128525000D03*
D11*
X233362500Y-123825000D03*
D10*
X235962500Y-129575000D03*
D12*
X225087500Y-128525000D03*
X239837500Y-129575000D03*
%TD*%
D10*
%TO.C,SW52*%
X324212500Y-90425000D03*
D11*
X328612500Y-85725000D03*
D10*
X331212500Y-91475000D03*
D12*
X320337500Y-90425000D03*
X335087500Y-91475000D03*
%TD*%
D14*
%TO.C,D15*%
X353618750Y-37525000D03*
X353618750Y-38925000D03*
%TD*%
%TO.C,D75*%
X46437500Y-123250000D03*
X46437500Y-124650000D03*
%TD*%
%TO.C,D63*%
X134543750Y-104200000D03*
X134543750Y-105600000D03*
%TD*%
%TO.C,D28*%
X253606250Y-66100000D03*
X253606250Y-67500000D03*
%TD*%
%TO.C,D3*%
X101206250Y-37525000D03*
X101206250Y-38925000D03*
%TD*%
%TO.C,D76*%
X67868750Y-123250000D03*
X67868750Y-124650000D03*
%TD*%
%TO.C,D29*%
X272656250Y-66100000D03*
X272656250Y-67500000D03*
%TD*%
%TO.C,D27*%
X234556250Y-66100000D03*
X234556250Y-67500000D03*
%TD*%
%TO.C,D62*%
X115493750Y-104200000D03*
X115493750Y-105600000D03*
%TD*%
%TO.C,D77*%
X86918750Y-123250000D03*
X86918750Y-124650000D03*
%TD*%
%TO.C,D35*%
X415531250Y-66100000D03*
X415531250Y-67500000D03*
%TD*%
%TO.C,D17*%
X44056250Y-66100000D03*
X44056250Y-67500000D03*
%TD*%
%TO.C,D101*%
X334568750Y-142300000D03*
X334568750Y-143700000D03*
%TD*%
%TO.C,D37*%
X453631250Y-66100000D03*
X453631250Y-67500000D03*
%TD*%
%TO.C,D14*%
X334568750Y-37525000D03*
X334568750Y-38925000D03*
%TD*%
%TO.C,D4*%
X120256250Y-37525000D03*
X120256250Y-38925000D03*
%TD*%
%TO.C,D59*%
X51200000Y-104200000D03*
X51200000Y-105600000D03*
%TD*%
%TO.C,D83*%
X201218750Y-123250000D03*
X201218750Y-124650000D03*
%TD*%
%TO.C,D105*%
X434581250Y-142300000D03*
X434581250Y-143700000D03*
%TD*%
%TO.C,D91*%
X434581250Y-123250000D03*
X434581250Y-124650000D03*
%TD*%
%TO.C,D64*%
X153593750Y-104200000D03*
X153593750Y-105600000D03*
%TD*%
%TO.C,D72*%
X396481250Y-104200000D03*
X396481250Y-105600000D03*
%TD*%
%TO.C,D99*%
X284562500Y-142300000D03*
X284562500Y-143700000D03*
%TD*%
%TO.C,D6*%
X167881250Y-37525000D03*
X167881250Y-38925000D03*
%TD*%
%TO.C,D25*%
X196456250Y-66100000D03*
X196456250Y-67500000D03*
%TD*%
%TO.C,D85*%
X239318750Y-123250000D03*
X239318750Y-124650000D03*
%TD*%
%TO.C,D11*%
X272656250Y-37525000D03*
X272656250Y-38925000D03*
%TD*%
%TO.C,D102*%
X353618750Y-142300000D03*
X353618750Y-143700000D03*
%TD*%
%TO.C,D100*%
X308375000Y-142300000D03*
X308375000Y-143700000D03*
%TD*%
%TO.C,D79*%
X125018750Y-123250000D03*
X125018750Y-124650000D03*
%TD*%
%TO.C,D69*%
X248843750Y-104200000D03*
X248843750Y-105600000D03*
%TD*%
%TO.C,D26*%
X215506250Y-66100000D03*
X215506250Y-67500000D03*
%TD*%
%TO.C,D18*%
X63106250Y-66100000D03*
X63106250Y-67500000D03*
%TD*%
%TO.C,D90*%
X415531250Y-123250000D03*
X415531250Y-124650000D03*
%TD*%
%TO.C,D66*%
X191693750Y-104200000D03*
X191693750Y-105600000D03*
%TD*%
%TO.C,D34*%
X396481250Y-66100000D03*
X396481250Y-67500000D03*
%TD*%
%TO.C,D58*%
X453631250Y-94675000D03*
X453631250Y-96075000D03*
%TD*%
%TO.C,D61*%
X96443750Y-104200000D03*
X96443750Y-105600000D03*
%TD*%
%TO.C,D36*%
X434581250Y-66100000D03*
X434581250Y-67500000D03*
%TD*%
%TO.C,D10*%
X253606250Y-37525000D03*
X253606250Y-38925000D03*
%TD*%
%TO.C,D38*%
X48818750Y-85150000D03*
X48818750Y-86550000D03*
%TD*%
D15*
%TO.C,U1*%
X453035000Y-50870000D03*
D16*
X453035000Y-51770000D03*
D15*
X450495000Y-50870000D03*
D16*
X450495000Y-51770000D03*
D17*
X447955000Y-50870000D03*
D16*
X447955000Y-51770000D03*
D15*
X445415000Y-50870000D03*
D16*
X445415000Y-51770000D03*
D15*
X442875000Y-50870000D03*
D16*
X442875000Y-51770000D03*
D15*
X440335000Y-50870000D03*
D16*
X440335000Y-51770000D03*
D15*
X437795000Y-50870000D03*
D16*
X437795000Y-51770000D03*
D17*
X435255000Y-50870000D03*
D16*
X435255000Y-51770000D03*
D15*
X432715000Y-50870000D03*
D16*
X432715000Y-51770000D03*
D15*
X430175000Y-50870000D03*
D16*
X430175000Y-51770000D03*
D15*
X427635000Y-50870000D03*
D16*
X427635000Y-51770000D03*
D15*
X425095000Y-50870000D03*
D16*
X425095000Y-51770000D03*
D17*
X422555000Y-50870000D03*
D16*
X422555000Y-51770000D03*
D15*
X420015000Y-50870000D03*
D16*
X420015000Y-51770000D03*
D15*
X417475000Y-50870000D03*
D16*
X417475000Y-51770000D03*
D15*
X414935000Y-50870000D03*
D16*
X414935000Y-51770000D03*
D15*
X412395000Y-50870000D03*
D16*
X412395000Y-51770000D03*
D17*
X409855000Y-50870000D03*
D16*
X409855000Y-51770000D03*
D15*
X407315000Y-50870000D03*
D16*
X407315000Y-51770000D03*
D15*
X404775000Y-50870000D03*
D16*
X404775000Y-51770000D03*
D15*
X404775000Y-33090000D03*
D16*
X404775000Y-32190000D03*
D15*
X407315000Y-33090000D03*
D16*
X407315000Y-32190000D03*
D17*
X409855000Y-33090000D03*
D16*
X409855000Y-32190000D03*
D15*
X412395000Y-33090000D03*
D16*
X412395000Y-32190000D03*
D15*
X414935000Y-33090000D03*
D16*
X414935000Y-32190000D03*
D15*
X417475000Y-33090000D03*
D16*
X417475000Y-32190000D03*
D15*
X420015000Y-33090000D03*
D16*
X420015000Y-32190000D03*
D17*
X422555000Y-33090000D03*
D16*
X422555000Y-32190000D03*
D15*
X425095000Y-33090000D03*
D16*
X425095000Y-32190000D03*
D15*
X427635000Y-33090000D03*
D16*
X427635000Y-32190000D03*
D15*
X430175000Y-33090000D03*
D16*
X430175000Y-32190000D03*
D15*
X432715000Y-33090000D03*
D16*
X432715000Y-32190000D03*
D17*
X435255000Y-33090000D03*
D16*
X435255000Y-32190000D03*
D15*
X437795000Y-33090000D03*
D16*
X437795000Y-32190000D03*
D15*
X440335000Y-33090000D03*
D16*
X440335000Y-32190000D03*
D15*
X442875000Y-33090000D03*
D16*
X442875000Y-32190000D03*
D15*
X445415000Y-33090000D03*
D16*
X445415000Y-32190000D03*
D17*
X447955000Y-33090000D03*
D16*
X447955000Y-32190000D03*
D15*
X450495000Y-33090000D03*
D16*
X450495000Y-32190000D03*
D15*
X453035000Y-33090000D03*
D16*
X453035000Y-32190000D03*
D15*
X423205000Y-41360000D03*
D17*
X423205000Y-38820000D03*
D15*
X423205000Y-36280000D03*
%TD*%
D14*
%TO.C,D82*%
X182168750Y-123250000D03*
X182168750Y-124650000D03*
%TD*%
%TO.C,D45*%
X186931250Y-85150000D03*
X186931250Y-86550000D03*
%TD*%
%TO.C,D41*%
X110731250Y-85150000D03*
X110731250Y-86550000D03*
%TD*%
%TO.C,D19*%
X82156250Y-66100000D03*
X82156250Y-67500000D03*
%TD*%
%TO.C,D44*%
X167881250Y-85150000D03*
X167881250Y-86550000D03*
%TD*%
%TO.C,D78*%
X105968750Y-123250000D03*
X105968750Y-124650000D03*
%TD*%
%TO.C,D74*%
X434581250Y-104200000D03*
X434581250Y-105600000D03*
%TD*%
%TO.C,D32*%
X353618750Y-66100000D03*
X353618750Y-67500000D03*
%TD*%
%TO.C,D48*%
X244081250Y-85150000D03*
X244081250Y-86550000D03*
%TD*%
%TO.C,D68*%
X229793750Y-104200000D03*
X229793750Y-105600000D03*
%TD*%
%TO.C,D94*%
X70250000Y-142300000D03*
X70250000Y-143700000D03*
%TD*%
%TO.C,D51*%
X308375000Y-94675000D03*
X308375000Y-96075000D03*
%TD*%
%TO.C,D87*%
X294087500Y-123250000D03*
X294087500Y-124650000D03*
%TD*%
%TO.C,D9*%
X225031250Y-37525000D03*
X225031250Y-38925000D03*
%TD*%
%TO.C,D71*%
X286943750Y-104200000D03*
X286943750Y-105600000D03*
%TD*%
%TO.C,D70*%
X267893750Y-104200000D03*
X267893750Y-105600000D03*
%TD*%
%TO.C,D89*%
X396481250Y-123250000D03*
X396481250Y-124650000D03*
%TD*%
%TO.C,D31*%
X334568750Y-66100000D03*
X334568750Y-67500000D03*
%TD*%
%TO.C,D55*%
X396481250Y-85150000D03*
X396481250Y-86550000D03*
%TD*%
%TO.C,D12*%
X291706250Y-37525000D03*
X291706250Y-38925000D03*
%TD*%
%TO.C,D52*%
X334568750Y-85150000D03*
X334568750Y-86550000D03*
%TD*%
%TO.C,D40*%
X91681250Y-85150000D03*
X91681250Y-86550000D03*
%TD*%
%TO.C,D8*%
X205981250Y-37525000D03*
X205981250Y-38925000D03*
%TD*%
%TO.C,D2*%
X82156250Y-37525000D03*
X82156250Y-38925000D03*
%TD*%
%TO.C,D13*%
X310756250Y-37525000D03*
X310756250Y-38925000D03*
%TD*%
%TO.C,D95*%
X94500000Y-142300000D03*
X94500000Y-143700000D03*
%TD*%
%TO.C,D104*%
X406006250Y-142300000D03*
X406006250Y-143700000D03*
%TD*%
%TO.C,D56*%
X415531250Y-85150000D03*
X415531250Y-86550000D03*
%TD*%
%TO.C,D81*%
X163118750Y-123250000D03*
X163118750Y-124650000D03*
%TD*%
%TO.C,D97*%
X236937500Y-142300000D03*
X236937500Y-143700000D03*
%TD*%
%TO.C,D5*%
X139306250Y-37525000D03*
X139306250Y-38925000D03*
%TD*%
%TO.C,D86*%
X258368750Y-123250000D03*
X258368750Y-124650000D03*
%TD*%
%TO.C,D24*%
X177406250Y-66100000D03*
X177406250Y-67500000D03*
%TD*%
%TO.C,D88*%
X353618750Y-123250000D03*
X353618750Y-124650000D03*
%TD*%
%TO.C,D84*%
X220268750Y-123250000D03*
X220268750Y-124650000D03*
%TD*%
%TO.C,D54*%
X372668750Y-85150000D03*
X372668750Y-86550000D03*
%TD*%
%TO.C,D98*%
X260750000Y-142300000D03*
X260750000Y-143700000D03*
%TD*%
%TO.C,D43*%
X148831250Y-85150000D03*
X148831250Y-86550000D03*
%TD*%
%TO.C,D33*%
X372668750Y-66100000D03*
X372668750Y-67500000D03*
%TD*%
%TO.C,D60*%
X77393750Y-104200000D03*
X77393750Y-105600000D03*
%TD*%
%TO.C,D49*%
X263131250Y-85150000D03*
X263131250Y-86550000D03*
%TD*%
%TO.C,D46*%
X205981250Y-85150000D03*
X205981250Y-86550000D03*
%TD*%
%TO.C,D65*%
X172643750Y-104200000D03*
X172643750Y-105600000D03*
%TD*%
%TO.C,D103*%
X372668750Y-142300000D03*
X372668750Y-143700000D03*
%TD*%
%TO.C,D7*%
X186931250Y-37525000D03*
X186931250Y-38925000D03*
%TD*%
%TO.C,D50*%
X282181250Y-85150000D03*
X282181250Y-86550000D03*
%TD*%
%TO.C,D23*%
X158356250Y-66100000D03*
X158356250Y-67500000D03*
%TD*%
%TO.C,D30*%
X301231250Y-66100000D03*
X301231250Y-67500000D03*
%TD*%
%TO.C,D20*%
X101206250Y-66100000D03*
X101206250Y-67500000D03*
%TD*%
%TO.C,D80*%
X144068750Y-123250000D03*
X144068750Y-124650000D03*
%TD*%
%TO.C,D16*%
X372668750Y-37525000D03*
X372668750Y-38925000D03*
%TD*%
%TO.C,D96*%
X165500000Y-142300000D03*
X165500000Y-143700000D03*
%TD*%
%TO.C,D93*%
X46437500Y-142300000D03*
X46437500Y-143700000D03*
%TD*%
%TO.C,D73*%
X415531250Y-104200000D03*
X415531250Y-105600000D03*
%TD*%
%TO.C,D22*%
X139306250Y-66100000D03*
X139306250Y-67500000D03*
%TD*%
%TO.C,D53*%
X353618750Y-85150000D03*
X353618750Y-86550000D03*
%TD*%
%TO.C,D1*%
X44056250Y-37525000D03*
X44056250Y-38925000D03*
%TD*%
%TO.C,D67*%
X210743750Y-104200000D03*
X210743750Y-105600000D03*
%TD*%
%TO.C,D47*%
X225031250Y-85150000D03*
X225031250Y-86550000D03*
%TD*%
%TO.C,D57*%
X434581250Y-85150000D03*
X434581250Y-86550000D03*
%TD*%
%TO.C,D21*%
X120256250Y-66100000D03*
X120256250Y-67500000D03*
%TD*%
%TO.C,D92*%
X453631250Y-132775000D03*
X453631250Y-134175000D03*
%TD*%
%TO.C,D42*%
X129781250Y-85150000D03*
X129781250Y-86550000D03*
%TD*%
%TO.C,D39*%
X72631250Y-85150000D03*
X72631250Y-86550000D03*
%TD*%
M02*
