M48
; DRILL file {KiCad 8.0.8} date 2025-04-08T21:15:21+0200
; FORMAT={-:-/ absolute / inch / decimal}
; #@! TF.CreationDate,2025-04-08T21:15:21+02:00
; #@! TF.GenerationSoftware,Kicad,Pcbnew,8.0.8
; #@! TF.FileFunction,Plated,1,2,PTH
FMAT,2
INCH
; #@! TA.AperFunction,Plated,PTH,ViaDrill
T1C0.0118
; #@! TA.AperFunction,Plated,PTH,ComponentDrill
T2C0.0402
%
G90
G05
T1
X1.1358Y-2.0069
X1.5555Y-2.1654
X1.8744Y-3.1407
X1.8744Y-3.8907
X2.1126Y-4.7264
X2.1126Y-4.7984
X2.202Y-5.4756
X2.2028Y-5.5476
X2.2988Y-3.2252
X2.2988Y-3.287
X2.3179Y-5.6112
X2.4846Y-3.9768
X2.4862Y-4.0437
X2.6742Y-2.1382
X2.6748Y-2.5453
X2.6776Y-2.4559
X2.7835Y-5.251
X2.8071Y-4.5531
X2.861Y-4.7236
X2.8622Y-4.7945
X2.8799Y-3.7431
X3.0484Y-3.1933
X3.0484Y-3.3047
X3.148Y-5.476
X3.148Y-5.5484
X3.2354Y-3.9744
X3.2366Y-4.0516
X3.2795Y-4.5404
X3.4242Y-2.1039
X3.4256Y-2.4591
X3.4256Y-2.5496
X3.5974Y-3.7569
X3.6114Y-4.7197
X3.6114Y-4.8035
X3.8Y-3.2228
X3.8Y-3.2933
X3.9281Y-3.753
X3.9862Y-3.961
X3.9862Y-4.0429
X3.997Y-2.9715
X4.0709Y-4.4951
X4.1742Y-2.0799
X4.1748Y-2.4752
X4.1748Y-2.5567
X4.2913Y-5.2894
X4.3634Y-4.7197
X4.3634Y-4.8016
X4.55Y-3.224
X4.5504Y-3.2961
X4.7366Y-4.0382
X4.737Y-3.9819
X4.8868Y-3.0295
X4.9236Y-2.5539
X4.9242Y-2.0555
X4.9244Y-2.474
X5.0089Y-5.7402
X5.0551Y-4.5768
X5.1043Y-3.747
X5.115Y-4.7197
X5.115Y-4.7992
X5.2274Y-2.252
X5.298Y-3.2193
X5.3Y-3.3055
X5.4858Y-4.0445
X5.4866Y-3.9748
X5.6142Y-3.0197
X5.6744Y-2.4689
X5.6744Y-2.5508
X5.8618Y-4.7291
X5.8622Y-4.7933
X5.9213Y-3.75
X5.9575Y-5.4646
X5.9575Y-5.5555
X5.9577Y-4.5069
X6.0476Y-3.3024
X6.0484Y-3.2169
X6.0492Y-2.0319
X6.2366Y-3.9827
X6.2366Y-4.0402
X6.3474Y-3.0128
X6.4205Y-2.5567
X6.4256Y-2.4709
X6.5728Y-4.5669
X6.611Y-4.7232
X6.611Y-4.7906
X6.6152Y-5.2539
X6.6388Y-3.7667
X6.7992Y-2.0035
X6.8Y-3.2154
X6.8Y-3.3043
X6.9866Y-3.9748
X6.9866Y-4.0504
X7.002Y-4.5404
X7.1447Y-2.9961
X7.1744Y-2.5496
X7.1776Y-2.4618
X7.3614Y-4.7213
X7.3614Y-4.7969
X7.3986Y-3.7697
X7.5484Y-3.202
X7.5492Y-1.972
X7.5492Y-3.2961
X7.7358Y-3.9657
X7.7366Y-4.0535
X7.8356Y-2.999
X7.8652Y-4.5039
X7.9217Y-2.565
X7.9236Y-2.4772
X8.1102Y-3.7569
X8.1102Y-4.7091
X8.1122Y-4.789
X8.2992Y-1.9417
X8.3Y-3.2094
X8.3Y-3.3035
X8.4858Y-3.9717
X8.4866Y-4.0453
X8.5659Y-4.5069
X8.6486Y-2.9793
X8.6736Y-2.472
X8.6736Y-2.561
X8.7667Y-5.5433
X8.7677Y-5.4852
X8.8307Y-3.7795
X8.8602Y-4.7272
X8.8602Y-4.7937
X9.0484Y-3.1906
X9.0492Y-3.313
X9.2307Y-1.915
X9.2358Y-3.9724
X9.2366Y-4.0374
X9.2667Y-4.5039
X9.4244Y-2.472
X9.4244Y-2.5579
X9.4685Y-3.0089
X9.5276Y-5.247
X9.6094Y-4.7291
X9.6114Y-4.7917
X9.6437Y-3.7667
X9.7028Y-5.4852
X9.7057Y-5.5344
X9.8Y-3.3055
X9.8008Y-3.187
X9.9547Y-3.7569
X9.9878Y-3.9705
X9.9878Y-4.0465
X10.0071Y-1.8894
X10.1368Y-2.9833
X10.1744Y-2.4823
X10.1748Y-2.5362
X10.4636Y-5.2244
X10.5484Y-3.326
X10.5492Y-3.1756
X10.6191Y-4.5463
X10.6449Y-5.476
X10.6449Y-5.552
X10.7358Y-3.9717
X10.7366Y-4.0382
X10.7386Y-4.7146
X10.7386Y-4.8083
X10.7951Y-1.8616
X10.877Y-5.2008
X10.9862Y-3.003
X11.0189Y-4.8063
X11.0205Y-4.7138
X11.2996Y-2.5571
X11.3004Y-2.4524
X11.31Y-3.6604
X11.3858Y-4.1114
X11.4339Y-5.4728
X11.5569Y-2.1959
X11.5815Y-3.3823
X11.5815Y-5.6138
X11.5823Y-3.3244
X12.1427Y-5.0659
X12.2815Y-4.5236
X12.3051Y-2.9006
X12.6117Y-2.2268
X12.6126Y-2.4852
X12.6126Y-2.5344
X12.6126Y-3.6988
X12.6138Y-3.7791
X12.6138Y-4.7311
X12.6138Y-4.8
X12.6142Y-5.4854
X12.6142Y-5.5354
X13.0886Y-5.1545
X13.1447Y-4.4341
X13.2874Y-5.6673
X13.2972Y-2.999
X13.3606Y-2.4872
X13.3606Y-2.5402
X13.361Y-3.3008
X13.361Y-4.8071
X13.361Y-5.4618
X13.3617Y-2.2547
X13.3618Y-3.2209
X13.3622Y-4.7102
X13.3622Y-5.5709
X13.502Y-5.6378
X13.8031Y-4.4045
X13.9969Y-4.8453
X14.0177Y-2.9961
X14.111Y-5.4819
X14.1117Y-2.2827
X14.1122Y-3.3244
X14.1122Y-5.5598
X14.1134Y-2.4872
X14.1134Y-3.224
X14.1134Y-5.8965
X14.115Y-5.9512
X14.1154Y-2.5457
X14.2362Y-5.6181
X14.2618Y-3.0059
X14.4114Y-4.4478
X14.5854Y-5.5106
X14.6205Y-2.3634
X14.6217Y-2.4874
X14.6217Y-3.1098
X14.6744Y-2.313
X14.7358Y-4.85
X14.7374Y-3.6917
X14.739Y-3.5055
X14.7406Y-2.9953
X14.7673Y-2.0319
X14.7693Y-3.7602
X14.7953Y-3.7177
X14.7992Y-2.0555
X14.8205Y-1.9417
X14.8228Y-4.498
X14.8547Y-1.915
X14.8551Y-4.5244
X14.8843Y-2.1959
X14.9071Y-1.8587
X14.9319Y-1.8894
X14.9567Y-1.972
X14.9835Y-2.0799
X14.9882Y-3.7567
X14.9898Y-3.7142
X15.0134Y-3.8043
X15.0169Y-2.6996
X15.0173Y-2.0035
X15.0177Y-2.898
X15.022Y-3.478
X15.0406Y-2.1654
X15.0409Y-4.1114
X15.0441Y-3.8374
X15.0551Y-2.963
X15.0563Y-3.4776
X15.0817Y-4.6722
X15.0846Y-1.2815
X15.2728Y-4.5303
X15.2741Y-4.4988
X15.3445Y-2.2803
X15.3469Y-1.8016
X15.3823Y-2.2776
X15.4158Y-2.3512
X15.5236Y-4.5319
X15.5248Y-4.5004
X15.572Y-1.8311
X15.572Y-2.2528
X15.6004Y-1.3717
X15.6016Y-2.2256
X15.6016Y-4.5319
X15.6039Y-4.5004
X15.6378Y-1.4799
X15.6382Y-2.1945
X15.6835Y-2.1669
X15.7118Y-2.1346
X15.7421Y-2.1035
X15.7783Y-2.0791
X15.7933Y-3.062
X15.8012Y-2.2508
X15.8012Y-2.4862
X15.8012Y-2.5402
X15.8098Y-2.0579
X15.8492Y-2.0315
X15.8783Y-1.9724
X15.9449Y-4.8809
X15.9547Y-1.6634
X16.0386Y-1.9406
X16.1535Y-1.6703
X16.237Y-1.915
X16.2854Y-3.4754
X16.2854Y-5.6673
X16.3354Y-1.8862
X16.3661Y-2.5138
X16.4339Y-1.8575
X16.4398Y-2.1429
X16.5207Y-3.7234
X16.535Y-1.4827
X16.536Y-2.1803
X16.5374Y-2.2335
X16.5374Y-2.4854
X16.5472Y-2.5433
X16.6388Y-4.497
X16.6791Y-2.4301
X16.7018Y-3.376
X16.737Y-2.1673
X16.937Y-1.8331
X17.0374Y-1.8035
X17.135Y-2.4616
X17.2079Y-5.5138
X17.2154Y-3.3862
X17.2154Y-3.9055
X17.2154Y-4.8157
X17.2169Y-2.5445
X17.2169Y-3.3228
X17.2169Y-4.1343
X17.2185Y-2.4854
X17.2185Y-4.8776
X17.2606Y-2.1472
X17.2618Y-2.4852
X17.2823Y-2.3907
X17.2851Y-2.167
X17.2992Y-5.6398
X17.3004Y-2.55
X17.3008Y-5.5728
X17.314Y-5.1614
X17.3354Y-2.9394
X17.3354Y-2.9953
X17.337Y-2.4872
X17.3795Y-2.9646
X17.4413Y-2.4852
X17.4413Y-2.5484
X17.4921Y-5.7766
X17.536Y-2.3169
X17.565Y-4.6427
X17.5984Y-3.2205
X17.7362Y-2.3012
X17.7744Y-2.25
X17.8661Y-2.4459
T2
X15.936Y-1.3028
X15.936Y-2.0028
X16.036Y-1.3028
X16.036Y-2.0028
X16.136Y-1.3028
X16.136Y-2.0028
X16.236Y-1.3028
X16.236Y-2.0028
X16.336Y-1.3028
X16.336Y-2.0028
X16.436Y-1.3028
X16.436Y-2.0028
X16.536Y-1.3028
X16.536Y-2.0028
X16.636Y-1.3028
X16.636Y-2.0028
X16.6616Y-1.4283
X16.6616Y-1.5283
X16.6616Y-1.6283
X16.736Y-1.3028
X16.736Y-2.0028
X16.836Y-1.3028
X16.836Y-2.0028
X16.936Y-1.3028
X16.936Y-2.0028
X17.036Y-1.3028
X17.036Y-2.0028
X17.136Y-1.3028
X17.136Y-2.0028
X17.236Y-1.3028
X17.236Y-2.0028
X17.336Y-1.3028
X17.336Y-2.0028
X17.436Y-1.3028
X17.436Y-2.0028
X17.536Y-1.3028
X17.536Y-2.0028
X17.636Y-1.3028
X17.636Y-2.0028
X17.736Y-1.3028
X17.736Y-2.0028
X17.836Y-1.3028
X17.836Y-2.0028
M30
